<svg xmlns="http://www.w3.org/2000/svg" width="13" height="13" version="1.1" viewBox="0 0 13 13"><g fill-opacity="1" fill-rule="evenodd" stroke="none"><path d="M6.098.129c0 .008-.07.016-.188.016-.152 0-.191.003-.2.015-.007.016-.046.024-.151.027-.192.008-.27.02-.278.043-.004.012-.027.016-.082.016-.043 0-.078.008-.078.016 0 .004-.027.011-.062.011-.051 0-.067.004-.067.02s-.015.02-.066.02c-.035 0-.063.003-.063.011S4.84.34 4.813.34c-.032 0-.063.008-.07.02a.148.148 0 0 1-.067.019c-.028 0-.047.004-.047.012 0 .007-.02.011-.047.011-.031 0-.047.008-.047.02 0 .016-.012.02-.05.02-.028 0-.051.007-.051.011 0 .008-.02.016-.047.016-.032 0-.043.004-.043.02 0 .011-.016.019-.055.019-.027 0-.05.004-.05.012 0 .007-.02.011-.04.011-.023 0-.043.012-.047.02-.004.011-.023.02-.039.02-.015 0-.035.007-.039.015-.004.008-.023.012-.047.012-.02 0-.039.007-.043.02-.004.01-.023.019-.039.019-.02 0-.03.008-.03.011 0 .008-.017.016-.036.016-.02 0-.031.008-.031.02 0 .011-.012.02-.028.02-.035 0-.129.038-.129.054 0 .004-.007.008-.015.008-.024 0-.114.043-.114.054 0 .008-.007.012-.015.012-.031 0-.09.031-.09.047 0 .012-.012.02-.031.02-.02 0-.031.003-.031.011s-.012.012-.028.012a.045.045 0 0 0-.035.02.03.03 0 0 1-.027.019c-.012 0-.04.016-.063.035a.205.205 0 0 1-.054.031c-.008 0-.016.004-.016.012s-.016.016-.031.02c-.02.004-.036.011-.036.02 0 .007-.007.015-.02.015-.007 0-.019.004-.019.011 0 .008-.003.012-.015.012-.008 0-.031.016-.051.035-.02.016-.043.032-.055.032a.033.033 0 0 0-.027.015c-.004.012-.027.031-.05.043-.028.016-.048.028-.048.035 0 .004-.007.008-.02.008-.01 0-.019.008-.019.016s-.008.012-.02.012c-.011 0-.019.007-.019.019s-.008.02-.023.02c-.028 0-.067.03-.067.05 0 .008-.007.016-.02.016-.01 0-.019.004-.019.012s-.008.011-.015.011c-.012 0-.032.016-.051.036a.158.158 0 0 1-.05.03c-.009 0-.013.009-.013.02 0 .008-.023.028-.046.04-.024.011-.047.027-.047.035 0 .003-.004.011-.012.011-.02 0-.05.032-.05.051 0 .008-.009.012-.017.012-.015 0-.05.035-.05.05 0 .008-.008.016-.012.016-.02 0-.055.031-.055.051 0 .008-.007.016-.023.016-.012 0-.035.011-.047.03-.016.016-.031.032-.035.032a.741.741 0 0 0-.152.16c0 .004-.008.008-.016.008-.012-.004-.016.004-.016.012.004.008-.004.015-.011.015a.588.588 0 0 0-.153.172c0 .012-.008.024-.015.024-.016 0-.051.035-.051.05 0 .008-.004.016-.012.016-.016 0-.05.031-.05.043a.126.126 0 0 1-.036.04c-.016.015-.031.038-.031.05 0 .012-.008.023-.02.023-.011 0-.02.008-.02.016s-.015.027-.03.04c-.02.015-.036.034-.036.05 0 .012-.004.023-.011.023-.008 0-.012.008-.012.02s-.008.02-.016.02c-.02 0-.05.034-.05.058a.03.03 0 0 1-.02.027.03.03 0 0 0-.02.028c0 .007-.003.015-.011.015a.017.017 0 0 0-.016.016c0 .008-.004.02-.015.031-.036.043-.047.059-.047.07 0 .004-.008.016-.02.02s-.02.02-.02.031c0 .016-.007.028-.011.028a.017.017 0 0 0-.016.015c0 .008-.008.02-.015.031-.043.047-.047.059-.047.082 0 .016-.012.028-.02.028-.012 0-.02.008-.02.02 0 .011-.007.019-.015.019s-.012.015-.012.031c0 .024-.007.035-.02.035-.01 0-.019.012-.019.032S.98 3.3.977 3.3c-.008 0-.016.013-.016.02 0 .012-.004.02-.012.02s-.015.015-.02.035c-.003.016-.015.027-.019.023-.008-.003-.012.008-.012.024 0 .02-.011.035-.02.039a.041.041 0 0 0-.019.035c0 .016-.007.027-.015.027s-.012.016-.012.032c0 .02-.008.035-.02.035-.011 0-.019.012-.019.031 0 .016-.004.031-.012.031s-.015.016-.015.032c0 .023-.008.035-.02.035s-.02.011-.02.031-.003.031-.011.031-.012.016-.012.031c0 .02-.012.036-.02.04-.011.003-.019.02-.019.035 0 .011-.008.027-.016.031a.143.143 0 0 0-.011.055c0 .03-.004.043-.02.043-.012 0-.02.011-.02.035 0 .015-.003.031-.011.031s-.016.02-.016.047c0 .031-.004.043-.02.043-.01 0-.019.012-.019.035 0 .016-.004.031-.011.031-.008 0-.012.024-.012.051 0 .031-.008.055-.02.059-.011.004-.02.023-.02.047 0 .02-.007.039-.015.039-.004 0-.012.023-.012.05 0 .04-.004.051-.02.051-.01 0-.019.016-.019.047 0 .027-.004.047-.011.047-.008 0-.012.02-.012.047a.148.148 0 0 1-.02.066c-.011.008-.02.04-.02.07 0 .028-.007.051-.015.051s-.012.028-.012.063c0 .05-.003.066-.019.066s-.02.016-.02.067c0 .035-.007.062-.011.062-.008 0-.016.035-.016.078 0 .055-.004.078-.02.082-.015.008-.019.032-.019.102 0 .05-.004.09-.012.09s-.011.047-.011.117c0 .09-.004.117-.02.12-.016.009-.02.04-.02.165 0 .098-.007.156-.015.156s-.012.164-.012.469c0 .305.004.469.012.469s.016.058.016.156c0 .125.003.156.02.164.015.004.019.031.019.121 0 .07.004.117.011.117.008 0 .012.04.012.09 0 .07.004.094.02.102.015.004.02.027.02.082 0 .043.007.078.015.078.004 0 .011.027.011.062 0 .043.004.067.02.07.012.009.02.028.02.067 0 .035.003.059.011.059s.016.027.016.058c0 .043.004.063.02.067.011.008.019.027.019.058 0 .028.004.051.012.051.007 0 .011.02.011.047 0 .031.008.047.02.047.016 0 .02.012.02.05 0 .028.007.051.011.051.008 0 .016.02.016.047 0 .032.004.043.02.043.011 0 .019.016.019.055 0 .027.004.05.012.05.007 0 .011.016.011.032a.1.1 0 0 0 .02.05.08.08 0 0 1 .02.048c0 .015.007.027.015.027s.012.016.012.031c0 .024.007.035.02.035.015 0 .019.012.019.043 0 .024.008.047.011.055.008.004.016.02.016.031 0 .016.008.032.02.035a.05.05 0 0 1 .02.04c0 .015.003.03.01.03.009 0 .013.012.013.032s.007.031.02.031c.01 0 .019.012.019.035 0 .016.007.032.015.032s.012.015.012.03c0 .02.008.032.02.032.011 0 .019.016.019.035 0 .016.004.032.012.032s.015.015.015.03c0 .024.008.036.02.036s.02.012.02.031c0 .02.003.031.011.031s.012.012.012.028c0 .012.015.035.035.047a.084.084 0 0 1 .031.054c0 .016.008.028.02.028s.02.011.02.035c0 .015.003.031.011.031s.016.008.016.02c0 .011.008.02.02.02.007 0 .019.01.019.027 0 .023.004.035.047.082.007.011.015.023.015.03 0 .009.008.016.012.016.008 0 .016.016.02.032.003.02.015.035.023.035.004 0 .012.004.012.015 0 .008.015.028.03.04.02.015.032.035.032.05 0 .012.008.024.016.024s.012.008.012.02c0 .011.007.019.019.019s.02.008.02.023c0 .028.03.067.05.067.008 0 .016.007.016.015s.008.02.016.032c.039.043.046.058.046.07 0 .008.008.012.016.012s.012.011.012.02c0 .01.008.019.015.019.02 0 .043.03.055.062.004.016.016.031.024.031.003 0 .011.004.011.012 0 .02.032.05.051.05.008 0 .012.009.012.017 0 .015.035.05.05.05.008 0 .016.008.016.016s.016.027.031.043c.02.012.036.027.036.039 0 .016.074.098.09.098.007 0 .011.004.007.011-.004.02.309.313.34.313.008 0 .016.008.016.015 0 .016.035.051.05.051.008 0 .016.004.016.012 0 .016.031.05.043.05.004 0 .024.016.043.036.02.015.043.031.05.031.013 0 .02.008.02.02 0 .011.008.02.016.02s.027.015.04.03c.015.02.034.036.05.036.012 0 .023.004.023.011 0 .008.008.012.02.012s.02.008.02.02c0 .011.007.02.019.02s.015.007.012.015c-.004.004.007.011.027.011s.031.008.031.02.008.02.02.02c.011 0 .02.003.02.011s.007.016.015.016.02.004.031.015c.043.036.059.047.07.047.004 0 .016.008.02.02s.02.02.031.02c.016 0 .028.007.028.011 0 .008.007.016.015.016s.02.008.031.015c.043.04.059.047.079.047.011 0 .023.012.027.02.004.011.016.02.023.02.012 0 .02.007.02.015s.015.012.031.012c.02 0 .035.007.035.015 0 .012.02.028.047.04.086.042.11.054.11.066 0 .004.011.008.03.008.016 0 .032.011.036.02.008.01.02.019.035.019a.05.05 0 0 1 .035.015c.004.008.016.012.031.012.012 0 .028.008.032.02.004.011.02.019.031.019.016 0 .027.004.027.012s.016.015.032.015c.023 0 .035.008.035.02s.011.02.031.02c.016 0 .035.003.04.011.003.008.019.012.03.012.016 0 .028.012.032.02.003.011.023.019.043.019.02 0 .03.008.023.016-.004.003.008.011.023.011.02 0 .04.008.051.02.008.012.028.02.047.02.016 0 .031.003.035.011.004.008.024.016.04.016.015 0 .034.008.038.02.004.007.024.019.047.019.02 0 .04.004.047.011.004.008.02.012.031.012.016 0 .035.008.047.02.012.011.035.02.051.02.016 0 .035.007.04.015a.086.086 0 0 0 .046.012c.02 0 .047.007.059.02.011.01.03.019.05.019.016 0 .035.004.04.011.003.008.03.012.066.012.039 0 .054.008.054.02 0 .011.024.02.06.027.12.016.155.023.167.043.008.012.035.016.086.016.043 0 .078.007.078.011 0 .008.035.016.078.016.055 0 .078.004.082.02.008.015.032.019.102.019.05 0 .09.004.09.012s.047.011.117.011c.09 0 .117.004.12.02.009.02.044.02.196.02.117 0 .192.007.192.015s.14.012.402.012.402-.004.402-.012.075-.016.192-.016c.152 0 .187 0 .195-.02.004-.015.031-.019.121-.019.07 0 .117-.004.117-.011 0-.008.04-.012.09-.012.07 0 .094-.004.102-.02.004-.015.027-.02.082-.02.043 0 .078-.007.078-.015 0-.004.035-.011.078-.011.05 0 .078-.004.086-.016.012-.02.047-.027.168-.043.035-.008.059-.016.059-.027 0-.012.015-.02.054-.02.035 0 .063-.004.067-.012.004-.007.023-.011.039-.011a.07.07 0 0 0 .05-.02c.012-.012.04-.02.06-.02a.086.086 0 0 0 .046-.011c.004-.008.023-.016.039-.016s.04-.008.05-.02a.085.085 0 0 1 .055-.019c.016 0 .032-.004.032-.012 0-.007.02-.011.039-.011.023 0 .043-.012.047-.02.004-.011.023-.02.039-.02.015 0 .035-.007.039-.015.004-.008.02-.012.035-.012.02 0 .039-.007.047-.02a.072.072 0 0 1 .047-.019c.02 0 .03-.008.03-.011 0-.008.013-.016.028-.016.016 0 .032-.008.035-.02a.05.05 0 0 1 .04-.02c.015 0 .03-.003.03-.01 0-.009.012-.013.032-.013s.031-.007.031-.02c0-.01.012-.019.035-.019.016 0 .032-.007.032-.015s.011-.012.027-.012c.012 0 .027-.008.031-.02.004-.011.024-.019.04-.019.019 0 .03-.004.03-.012s.012-.015.028-.015a.041.041 0 0 0 .035-.02.045.045 0 0 1 .035-.02c.02 0 .031-.003.031-.011s.008-.012.016-.012a.165.165 0 0 0 .055-.035.192.192 0 0 1 .066-.031c.012 0 .02-.008.02-.02s.011-.02.035-.02c.015 0 .031-.003.031-.011s.008-.016.02-.016a.02.02 0 0 0 .02-.02c0-.007.01-.019.027-.019.015 0 .035-.004.043-.015.042-.04.058-.047.07-.047a.017.017 0 0 0 .015-.016c0-.004.012-.012.028-.012.011 0 .027-.007.031-.02.004-.01.016-.019.02-.019a.06.06 0 0 0 .03-.015c.044-.04.06-.047.071-.047a.017.017 0 0 0 .016-.016c0-.008.008-.011.02-.011.011 0 .019-.008.019-.02s.012-.02.027-.02c.027 0 .063-.027.063-.05 0-.008.007-.016.02-.016.01 0 .019-.004.019-.012s.011-.011.023-.011c.016 0 .035-.016.05-.036.013-.015.032-.03.04-.03s.016-.009.016-.02c0-.012.007-.02.02-.02.007 0 .038-.02.066-.047a.215.215 0 0 1 .062-.043c.004 0 .008-.011.008-.02 0-.011.008-.019.015-.019.016 0 .051-.035.051-.05 0-.008.008-.016.016-.016.027 0 .375-.32.375-.344 0-.004.008-.016.016-.027.039-.043.046-.059.046-.07 0-.008.008-.012.016-.012.02 0 .05-.035.05-.055 0-.004.009-.012.016-.012.016 0 .051-.035.051-.05 0-.008.008-.016.02-.016.008 0 .02-.004.02-.008 0-.008.011-.027.03-.047.02-.023.032-.043.032-.05 0-.016.035-.051.05-.051.008 0 .016-.008.016-.02 0-.008.004-.02.012-.02s.016-.003.016-.011.003-.024.015-.031c.04-.043.047-.059.047-.07 0-.009.008-.016.016-.016.02 0 .05-.04.05-.067 0-.015.008-.023.02-.023s.02-.008.02-.02c0-.011.003-.02.011-.02s.016-.015.016-.034c0-.016.004-.032.012-.032.02 0 .05-.03.05-.05 0-.008.008-.012.012-.012.008 0 .02-.016.024-.035.003-.016.011-.032.019-.032.004 0 .012-.007.012-.015 0-.012.015-.035.031-.051.02-.02.031-.05.031-.062 0-.016.012-.028.02-.028a.02.02 0 0 0 .02-.02c0-.011.007-.019.015-.019s.012-.015.012-.031c0-.024.007-.035.02-.035.01 0 .019-.012.019-.032s.008-.03.011-.03a.017.017 0 0 0 .016-.016.06.06 0 0 1 .016-.032c.043-.047.047-.058.047-.082 0-.015.011-.027.02-.027.01 0 .019-.012.019-.035 0-.016.007-.031.015-.031s.012-.012.012-.032c0-.015.008-.035.02-.039.011-.004.019-.02.019-.031 0-.016.004-.027.012-.027s.015-.016.015-.032c0-.023.008-.035.02-.035s.02-.011.02-.031.003-.031.011-.031.012-.016.012-.031c0-.02.012-.036.02-.04.011-.003.019-.02.019-.035 0-.011.008-.027.016-.031a.143.143 0 0 0 .011-.055c0-.03.004-.043.02-.043.012 0 .02-.011.02-.035 0-.015.003-.031.011-.031s.016-.016.016-.031c0-.016.008-.04.02-.047a.086.086 0 0 0 .019-.047c0-.016.004-.031.011-.031.008 0 .012-.024.012-.051 0-.04.008-.055.02-.055.015 0 .02-.011.02-.043 0-.027.007-.047.015-.047.004 0 .012-.023.012-.05 0-.04.004-.051.02-.051.01 0 .019-.016.019-.047 0-.027.004-.047.011-.047.008 0 .012-.023.012-.05 0-.032.008-.051.02-.06.015-.003.02-.023.02-.066 0-.03.007-.058.015-.058s.011-.028.011-.063c0-.05.004-.066.02-.066s.02-.016.02-.067c0-.035.007-.062.011-.062.008 0 .016-.035.016-.078 0-.051.004-.082.02-.09.011-.012.019-.043.019-.102 0-.046.004-.082.012-.082s.011-.047.011-.117c0-.09.004-.117.02-.12.016-.009.02-.04.02-.165 0-.09.007-.16.015-.164.008-.004.012-.176.012-.469 0-.297-.004-.46-.012-.46s-.016-.06-.016-.157c0-.125-.003-.156-.02-.164-.015-.004-.019-.031-.019-.121 0-.07-.004-.117-.011-.117-.008 0-.012-.035-.012-.082 0-.059-.008-.09-.02-.106-.011-.012-.02-.043-.02-.09 0-.039-.007-.074-.015-.074-.004 0-.011-.027-.011-.059 0-.039-.004-.062-.02-.066-.012-.004-.02-.027-.02-.07 0-.035-.003-.063-.011-.063s-.016-.023-.016-.05c0-.032-.008-.063-.02-.07a.148.148 0 0 1-.019-.067c0-.028-.004-.047-.012-.047-.007 0-.011-.02-.011-.047 0-.031-.008-.047-.02-.047-.015 0-.02-.012-.02-.05 0-.028-.007-.051-.011-.051-.008 0-.016-.02-.016-.047 0-.032-.004-.043-.02-.043-.011 0-.019-.016-.019-.055 0-.031-.004-.05-.012-.043-.007.004-.011-.012-.011-.035 0-.024-.008-.04-.02-.04-.015 0-.02-.01-.02-.042 0-.027-.007-.047-.015-.047s-.012-.016-.012-.031c0-.024-.007-.035-.02-.035-.015 0-.019-.012-.019-.043a.143.143 0 0 0-.011-.055c-.008-.004-.016-.02-.016-.031 0-.016-.008-.032-.02-.035a.05.05 0 0 1-.02-.04c0-.015-.003-.03-.01-.03-.009 0-.013-.012-.013-.032s-.007-.031-.02-.031c-.01 0-.019-.012-.019-.035 0-.016-.007-.032-.015-.032s-.012-.011-.012-.027c0-.012-.008-.027-.02-.031-.011-.004-.019-.02-.019-.031 0-.016-.004-.028-.012-.032a.05.05 0 0 1-.015-.035.041.041 0 0 0-.02-.035c-.008-.004-.02-.02-.02-.04 0-.015-.003-.026-.011-.023-.008.004-.012 0-.012-.015 0-.012-.015-.04-.035-.059-.016-.02-.031-.047-.031-.062 0-.012-.008-.024-.02-.024s-.02-.011-.02-.035c0-.015-.003-.031-.011-.031s-.016-.008-.016-.02a.02.02 0 0 0-.02-.02c-.007 0-.019-.01-.019-.027a.116.116 0 0 0-.031-.062c-.016-.016-.031-.04-.031-.05a.017.017 0 0 0-.016-.016c-.004 0-.012-.012-.012-.028 0-.011-.007-.027-.02-.031-.01-.004-.019-.016-.019-.02a.06.06 0 0 0-.015-.03c-.035-.04-.047-.06-.047-.067a.177.177 0 0 0-.035-.043c-.016-.02-.032-.043-.032-.059 0-.011-.007-.02-.011-.015-.008.003-.016 0-.016-.012s-.008-.02-.02-.02c-.011 0-.019-.007-.019-.02 0-.01-.004-.019-.012-.019s-.011-.011-.011-.023c0-.016-.016-.035-.036-.05-.015-.013-.03-.032-.03-.04s-.009-.016-.02-.016c-.012 0-.02-.011-.02-.023s-.015-.035-.031-.05a.126.126 0 0 1-.035-.04c0-.012-.035-.043-.051-.043-.008 0-.012-.008-.012-.015 0-.016-.035-.051-.05-.051-.008 0-.016-.012-.016-.024 0-.015-.016-.035-.031-.05-.02-.012-.036-.028-.036-.036a.403.403 0 0 0-.117-.113c-.008 0-.011-.004-.011-.012a.723.723 0 0 0-.153-.156c-.004 0-.02-.016-.035-.031-.012-.02-.035-.031-.047-.031-.015 0-.023-.008-.023-.016 0-.02-.035-.05-.055-.05-.004 0-.012-.009-.012-.016 0-.016-.035-.051-.05-.051-.008 0-.016-.004-.016-.012 0-.02-.031-.05-.05-.05-.009 0-.013-.009-.013-.012 0-.008-.023-.024-.046-.036-.024-.011-.047-.03-.047-.039a.02.02 0 0 0-.02-.02c-.008 0-.02-.003-.02-.01 0-.009-.003-.017-.011-.017s-.024-.003-.031-.015c-.043-.04-.059-.047-.07-.047a.017.017 0 0 1-.016-.016c0-.02-.04-.05-.067-.05-.015 0-.023-.008-.023-.02s-.008-.02-.02-.02c-.011 0-.02-.003-.02-.011a.017.017 0 0 0-.015-.016.046.046 0 0 1-.031-.015c-.043-.036-.059-.047-.07-.047-.004 0-.016-.008-.02-.02a.03.03 0 0 0-.027-.02c-.012 0-.035-.015-.055-.03-.02-.02-.043-.036-.05-.036-.012 0-.016-.004-.016-.012 0-.007-.012-.011-.02-.011-.012 0-.02-.008-.02-.016s-.015-.016-.035-.02c-.015-.003-.03-.011-.03-.019s-.009-.012-.017-.012c-.007 0-.03-.015-.054-.03C9.734.976 9.707.96 9.695.96a.03.03 0 0 1-.027-.02.045.045 0 0 0-.035-.02c-.016 0-.028-.003-.028-.01 0-.009-.011-.013-.03-.013-.02 0-.032-.007-.032-.02 0-.015-.059-.046-.09-.046-.008 0-.015-.004-.015-.012 0-.011-.09-.054-.114-.054-.008 0-.015-.004-.015-.008 0-.016-.094-.055-.13-.055-.015 0-.027-.008-.027-.02 0-.011-.011-.019-.03-.019-.02 0-.036-.008-.036-.016 0-.003-.012-.011-.027-.011a.081.081 0 0 1-.047-.02c-.008-.012-.035-.02-.055-.02-.023 0-.039-.003-.039-.011S8.902.57 8.887.57c-.016 0-.035-.007-.04-.02-.003-.007-.023-.019-.046-.019-.02 0-.04-.004-.04-.011 0-.008-.023-.012-.05-.012-.04 0-.055-.008-.055-.02 0-.015-.011-.02-.043-.02-.027 0-.047-.007-.047-.015 0-.004-.023-.012-.05-.012-.032 0-.051-.007-.059-.02-.004-.01-.023-.019-.047-.019-.02 0-.039-.004-.039-.011 0-.008-.02-.012-.047-.012a.148.148 0 0 1-.066-.02c-.008-.011-.04-.02-.07-.02-.028 0-.051-.007-.051-.015S8.109.312 8.074.312c-.05 0-.066-.003-.066-.019s-.016-.02-.067-.02c-.035 0-.062-.007-.062-.011 0-.008-.035-.016-.078-.016-.055 0-.078-.004-.082-.02C7.71.216 7.69.208 7.656.208c-.027 0-.054-.004-.058-.012A.502.502 0 0 0 7.44.184c-.117 0-.148-.004-.152-.02-.008-.02-.043-.02-.195-.02-.117 0-.192-.007-.192-.015S6.762.117 6.5.117s-.402.004-.402.012m.875.332c.054.012.148.02.203.02.058 0 .105.007.11.011.003.008.058.016.12.016.106 0 .23.027.258.054A.212.212 0 0 0 7.73.57c.028 0 .07.012.09.02.02.012.059.02.086.02.028 0 .051.007.055.015.008.008.027.012.047.012s.055.008.074.02c.02.011.05.019.07.019.02 0 .04.008.043.011.004.008.024.016.04.016.015 0 .046.008.066.02.023.007.05.02.066.02.02 0 .031.003.031.01 0 .009.02.013.043.013a.23.23 0 0 1 .067.02c.015.01.039.019.055.019.015 0 .03.007.03.015 0 .004.012.012.028.012.02 0 .043.008.059.02.011.011.035.02.054.02.016 0 .028.003.028.01 0 .009.015.016.039.016.02 0 .043.008.05.02.012.008.028.02.044.02.011 0 .023.003.023.011s.012.012.023.012a.48.48 0 0 1 .125.055.92.92 0 0 0 .141.058c.004.016.086.059.11.059.007 0 .019.004.019.008 0 .007.008.015.02.02.015.007.054.026.09.046.034.023.085.05.109.063a.988.988 0 0 1 .086.05.16.16 0 0 0 .05.032c.008 0 .028.015.047.03.02.02.047.036.059.036.008 0 .023.008.027.02.004.007.016.019.024.019.011 0 .02.004.02.012s.007.011.015.011.031.016.05.036c.02.015.04.03.044.03.007 0 .191.13.207.15.007.007.039.03.066.054.027.02.059.043.066.05.024.024.075.063.118.095.054.046.308.28.406.386.18.188.23.239.273.293.028.031.055.063.063.07.008.012.015.024.015.032s.008.015.012.015a.464.464 0 0 1 .055.067c.023.031.062.074.082.094.02.023.039.05.043.066.004.016.023.035.039.05.015.012.031.032.031.04s.016.031.031.05c.02.02.036.04.036.047 0 .008.003.016.007.016s.032.035.055.078c.027.043.05.078.055.078.008 0 .011.008.011.02s.016.039.032.062a.23.23 0 0 1 .035.051c0 .004.027.055.062.113a.883.883 0 0 1 .067.122c0 .011.004.02.008.023a.241.241 0 0 1 .054.11c0 .007.008.019.012.019a.26.26 0 0 1 .055.11c0 .011.004.019.011.019.004 0 .02.027.032.062.015.035.03.078.043.098.011.016.02.043.02.055 0 .011.003.02.01.02.009 0 .013.01.013.023a.21.21 0 0 0 .023.07c.04.078.043.086.043.113 0 .016.004.028.012.031a.24.24 0 0 1 .035.082.814.814 0 0 0 .039.118c.012.023.02.05.02.066s.003.031.011.035c.008.004.012.028.012.055 0 .023.008.043.012.043.007 0 .02.023.023.05a.256.256 0 0 0 .02.071.156.156 0 0 1 .011.066c0 .028.004.047.012.047s.016.028.02.063a.51.51 0 0 0 .02.082c.007.015.015.05.015.078 0 .031.004.062.011.07.012.016.036.164.047.324a.301.301 0 0 0 .02.106c.055.066.055 1.426 0 1.492a.304.304 0 0 0-.02.106c-.011.16-.035.308-.047.324-.007.008-.011.039-.011.07a.212.212 0 0 1-.016.078.51.51 0 0 0-.02.082c-.003.035-.011.063-.019.063-.004 0-.012.023-.016.054-.011.086-.035.18-.05.18-.004 0-.012.024-.012.05 0 .028-.004.056-.012.06-.008.003-.012.019-.012.03a.22.22 0 0 1-.02.06.144.144 0 0 0-.019.062c0 .023-.004.031-.043.113a.212.212 0 0 0-.023.063c0 .02-.004.027-.043.105a.25.25 0 0 0-.023.059c0 .023-.043.113-.055.113a.75.75 0 0 1-.094.223c-.113.222-.152.293-.164.296-.004 0-.012.012-.012.02a.206.206 0 0 1-.027.07.48.48 0 0 0-.055.098c-.015.023-.03.047-.039.047-.004 0-.008.008-.008.015a.207.207 0 0 1-.03.055l-.056.09a.273.273 0 0 1-.046.07c-.008.012-.032.043-.047.07a1.771 1.771 0 0 1-.082.11.786.786 0 0 1-.043.066c-.13.165-.2.247-.211.262-.14.164-.426.457-.438.457-.004 0-.05.047-.11.102a2.28 2.28 0 0 1-.167.152.522.522 0 0 0-.066.063.03.03 0 0 1-.02.007c-.012 0-.027.016-.043.036-.012.015-.027.03-.039.03a.219.219 0 0 0-.059.044c-.054.05-.203.152-.218.152-.008 0-.016.004-.016.012a.757.757 0 0 1-.168.117c-.008 0-.031.016-.05.035a.227.227 0 0 1-.044.031.814.814 0 0 0-.113.067.564.564 0 0 1-.125.062c-.012 0-.02.004-.02.012 0 .016-.41.223-.433.223-.012 0-.02.008-.02.011 0 .008-.015.016-.035.016-.015 0-.031.004-.031.008 0 .012-.09.055-.113.055a.25.25 0 0 0-.059.023c-.078.04-.086.043-.113.043-.016 0-.04.008-.047.02a.072.072 0 0 1-.047.019c-.012 0-.027.004-.031.012s-.024.015-.043.015c-.02 0-.043.004-.047.008a.566.566 0 0 1-.168.055c-.008 0-.035.012-.055.02a.175.175 0 0 1-.074.019c-.02 0-.039.008-.043.016a.105.105 0 0 1-.05.011.178.178 0 0 0-.079.02.213.213 0 0 1-.086.02c-.027 0-.05.003-.058.011-.004.008-.035.016-.067.016-.035 0-.07.004-.074.011-.016.012-.184.04-.332.047a.343.343 0 0 0-.113.02c-.07.058-1.367.058-1.438 0a.343.343 0 0 0-.113-.02 1.532 1.532 0 0 1-.332-.047c-.004-.007-.04-.011-.074-.011a.163.163 0 0 1-.067-.012c-.004-.008-.039-.016-.074-.02a.355.355 0 0 1-.082-.02.168.168 0 0 0-.066-.019.453.453 0 0 1-.18-.05.115.115 0 0 0-.04-.012.397.397 0 0 1-.1-.027.397.397 0 0 0-.11-.032.125.125 0 0 1-.05-.02.267.267 0 0 0-.052-.015c-.02-.004-.035-.015-.035-.023s-.015-.012-.031-.012c-.035 0-.04-.004-.121-.043a.212.212 0 0 0-.063-.023c-.02 0-.101-.04-.105-.055a.042.042 0 0 0-.024-.008c-.011 0-.03-.008-.042-.012-.34-.168-.457-.23-.457-.238 0-.008-.008-.012-.02-.012a.26.26 0 0 1-.098-.05c-.004-.008-.02-.016-.035-.02a.149.149 0 0 1-.05-.031.86.86 0 0 0-.075-.047c-.027-.012-.047-.027-.047-.035 0-.004-.011-.012-.02-.012-.019 0-.034-.008-.077-.047a.046.046 0 0 0-.032-.015.177.177 0 0 1-.043-.036.225.225 0 0 0-.046-.03c-.008 0-.028-.017-.047-.032a.152.152 0 0 0-.059-.04.298.298 0 0 1-.062-.042 1.079 1.079 0 0 0-.094-.082.464.464 0 0 1-.067-.055c0-.004-.011-.012-.02-.012a.042.042 0 0 1-.023-.007.24.24 0 0 0-.046-.047 8.221 8.221 0 0 1-.586-.563c-.13-.14-.153-.164-.204-.234a.642.642 0 0 0-.05-.063.875.875 0 0 1-.051-.066c-.024-.027-.055-.066-.07-.082a.13.13 0 0 1-.028-.05.017.017 0 0 0-.015-.017c-.004 0-.012-.007-.012-.019a.03.03 0 0 0-.016-.023c-.011-.004-.027-.028-.043-.055a.151.151 0 0 0-.03-.047c-.009 0-.017-.008-.017-.02 0-.007-.003-.02-.011-.02-.004 0-.012-.007-.016-.023a.92.92 0 0 0-.07-.113.135.135 0 0 1-.031-.055c0-.007-.004-.015-.008-.015-.012 0-.02-.012-.067-.11a.236.236 0 0 0-.043-.066c-.007-.004-.011-.016-.011-.027 0-.012-.012-.031-.028-.047a.156.156 0 0 1-.035-.059c-.004-.015-.012-.027-.015-.027-.008 0-.012-.012-.012-.027 0-.012-.012-.032-.02-.04-.011-.007-.02-.027-.02-.042 0-.012-.007-.024-.015-.024s-.012-.012-.012-.023c0-.012-.007-.032-.02-.04a.063.063 0 0 1-.019-.042c0-.012-.007-.024-.011-.024-.008 0-.016-.011-.016-.023A.104.104 0 0 0 .98 9a.114.114 0 0 1-.02-.055c0-.015-.003-.027-.01-.027-.009 0-.012-.016-.012-.031 0-.02-.008-.035-.012-.035-.008 0-.02-.012-.024-.028a.74.74 0 0 0-.05-.133.146.146 0 0 1-.02-.058c0-.016-.008-.028-.012-.035-.007-.004-.015-.02-.015-.036a.104.104 0 0 0-.02-.054.114.114 0 0 1-.02-.055c0-.015-.003-.031-.011-.035-.008-.004-.012-.023-.012-.043a.167.167 0 0 0-.02-.063c-.01-.01-.018-.042-.018-.066 0-.023-.008-.043-.015-.043-.004 0-.012-.02-.012-.043a.135.135 0 0 0-.02-.07c-.011-.012-.02-.047-.02-.07 0-.028-.003-.051-.011-.051S.61 7.945.61 7.914a.204.204 0 0 0-.02-.09.241.241 0 0 1-.015-.086C.57 7.707.566 7.684.56 7.684c-.008 0-.012-.032-.012-.07a.35.35 0 0 0-.02-.118.39.39 0 0 1-.02-.129c0-.047-.003-.09-.01-.094a.543.543 0 0 1-.02-.16 2.094 2.094 0 0 0-.02-.195 6.139 6.139 0 0 1 0-.848c.004-.023.016-.11.02-.191a.492.492 0 0 1 .02-.152c.007-.004.01-.047.01-.098 0-.05.009-.102.02-.125a.338.338 0 0 0 .02-.106c0-.035.004-.07.012-.074.007-.004.011-.035.015-.062 0-.032.008-.07.016-.086a.204.204 0 0 0 .02-.09c0-.031.007-.055.015-.055s.012-.023.012-.05c0-.024.008-.06.02-.07a.135.135 0 0 0 .019-.071c0-.024.008-.043.011-.043.008 0 .016-.02.016-.043 0-.024.008-.055.02-.066a.167.167 0 0 0 .02-.063c0-.02.003-.04.01-.043.009-.004.013-.02.013-.035 0-.02.011-.043.02-.055a.092.092 0 0 0 .019-.05c0-.024.004-.032.043-.11a.227.227 0 0 0 .023-.066c0-.016.004-.032.012-.036.008-.003.015-.02.015-.039 0-.015.008-.035.02-.043.008-.011.02-.027.02-.043 0-.011.003-.023.011-.023s.012-.012.012-.031a.1.1 0 0 1 .02-.055A.081.081 0 0 0 1 3.95c0-.011.008-.023.016-.023.004 0 .011-.012.011-.024 0-.015.008-.03.02-.043.012-.007.02-.027.02-.039 0-.011.003-.023.011-.023s.016-.012.016-.024c0-.015.008-.035.02-.043.007-.007.019-.027.019-.039 0-.011.004-.023.008-.027.011-.004.027-.035.093-.16a.688.688 0 0 1 .043-.07c.004 0 .008-.012.008-.02 0-.012.012-.023.02-.031a.253.253 0 0 0 .039-.059c.027-.05.047-.082.082-.136a.164.164 0 0 0 .031-.055c0-.008.004-.012.012-.012s.011-.012.011-.02c0-.011.008-.019.012-.019.008 0 .04-.043.074-.094.036-.054.07-.101.079-.11.02-.023.046-.058.097-.12a.6.6 0 0 1 .051-.067c.004-.003.027-.035.055-.066.054-.07.043-.059.21-.238a21.2 21.2 0 0 1 .196-.203c.027-.024.086-.082.133-.125a.742.742 0 0 1 .09-.082.396.396 0 0 0 .054-.051c.031-.024.07-.063.094-.078l.082-.067c.023-.023.047-.039.055-.039a.096.096 0 0 0 .039-.031.65.65 0 0 1 .129-.098c.007 0 .023-.015.043-.035.02-.016.039-.031.047-.031a.163.163 0 0 0 .042-.027.75.75 0 0 1 .149-.098.311.311 0 0 0 .05-.04c.02-.015.04-.03.048-.03a.166.166 0 0 0 .05-.032.668.668 0 0 1 .09-.05.186.186 0 0 0 .055-.036c.004-.007.02-.011.031-.011.016 0 .027-.004.027-.012 0-.004.012-.016.024-.024.016-.003.11-.05.207-.101.098-.047.195-.098.215-.106a.116.116 0 0 1 .054-.02c.012 0 .02-.003.02-.01 0-.009.012-.012.023-.012.016 0 .032-.012.043-.02.008-.012.028-.02.047-.02.032 0 .04-.003.117-.046a.182.182 0 0 1 .063-.02c.02 0 .027-.004.11-.043a.22.22 0 0 1 .077-.023c.024 0 .04-.004.04-.012s.011-.012.03-.012c.016 0 .044-.012.067-.02a.171.171 0 0 1 .067-.019c.015 0 .035-.008.039-.015a.105.105 0 0 1 .05-.012.12.12 0 0 0 .067-.02.117.117 0 0 1 .066-.02c.024 0 .043-.003.051-.011.004-.008.027-.016.05-.016a.269.269 0 0 0 .095-.02.363.363 0 0 1 .093-.019.208.208 0 0 0 .059-.007c.027-.028.152-.055.258-.055.062 0 .117-.008.12-.016A.4.4 0 0 1 5.829.48.961.961 0 0 0 6.02.46a6.59 6.59 0 0 1 .953 0M2.234 4.157a.388.388 0 0 0-.09.051c-.015.02-.035.031-.042.031-.004 0-.008.008-.008.016 0 .012-.016.031-.035.05-.016.016-.032.036-.032.048 0 .007-.004.015-.011.015-.004 0-.016.028-.02.063a.265.265 0 0 1-.02.074c-.023.027-.027.168-.038.809-.004.507-.012.671-.024.683-.008.008-.016.035-.016.059 0 .164-.164.402-.293.425-.054.008-.062.032-.054.145.004.074.004.074.047.086.02.008.039.02.039.023 0 .008.011.012.023.012.028 0 .172.152.172.184 0 .015.008.023.012.023.015 0 .043.094.054.184.008.039.016.097.024.129.008.035.016.293.016.636 0 .57.003.664.046.793.008.035.02.078.02.098 0 .02.004.035.012.035.007 0 .011.004.011.012 0 .015.043.07.106.129.062.062.125.078.324.078h.168v-.102c0-.113 0-.117-.094-.117-.078 0-.23-.121-.23-.18a.231.231 0 0 0-.028-.066c-.015-.031-.023-.059-.015-.066.004-.012 0-.02-.008-.028-.016-.008-.02-.113-.016-.535.004-.363 0-.535-.011-.562-.008-.02-.016-.082-.024-.141a.502.502 0 0 0-.015-.11c-.008-.003-.012-.019-.012-.035a.159.159 0 0 0-.02-.066.191.191 0 0 1-.02-.074c0-.02-.003-.035-.01-.035a.306.306 0 0 1-.056-.078.306.306 0 0 0-.054-.079c-.004 0-.008-.007-.008-.015a.298.298 0 0 0-.067-.07c-.078-.075-.09-.133-.03-.168a.186.186 0 0 0 .1-.094.133.133 0 0 1 .036-.051c.012-.012.023-.031.023-.04a.09.09 0 0 1 .016-.034c.012-.008.031-.051.043-.09a.244.244 0 0 1 .035-.074c.008 0 .02-.051.035-.188.008-.05.02-.117.028-.152.011-.04.015-.2.011-.559-.004-.511 0-.531.047-.644a.167.167 0 0 0 .02-.059.266.266 0 0 1 .11-.133.249.249 0 0 1 .155-.058h.059v-.098c0-.074-.004-.098-.02-.105a1.339 1.339 0 0 0-.37.015m2.277-.011a.074.074 0 0 0-.043.046c-.008.024-.016.051-.024.067a.561.561 0 0 1-.035.082.175.175 0 0 1-.031.055c-.008 0-.012.011-.012.023 0 .016-.004.031-.012.035a.123.123 0 0 0-.015.047.553.553 0 0 1-.043.117.34.34 0 0 0-.031.09c0 .004-.008.012-.016.012s-.012.015-.012.031c0 .02-.008.035-.011.035-.008 0-.016.008-.016.024a.081.081 0 0 1-.02.046c-.007.016-.02.036-.02.047 0 .024-.026.09-.097.239a.605.605 0 0 0-.039.105c-.004.02-.031.09-.062.156a1.322 1.322 0 0 0-.078.192c-.012.039-.028.074-.036.074-.007 0-.011.016-.011.031 0 .02-.004.035-.012.04-.008.003-.016.027-.02.046-.003.02-.015.04-.02.04-.007 0-.015.007-.015.019a.57.57 0 0 1-.05.14.074.074 0 0 0-.012.036c0 .015-.067.16-.114.25a.209.209 0 0 0-.015.062c0 .012-.016.05-.031.086a1.42 1.42 0 0 0-.055.113.452.452 0 0 1-.035.074c-.004.016-.012.036-.012.051 0 .012-.004.028-.012.032-.007.003-.015.023-.02.046-.003.02-.015.04-.019.04-.008 0-.011.011-.011.027a.48.48 0 0 1-.047.113.653.653 0 0 0-.051.129c-.004.023-.016.047-.024.05a.045.045 0 0 0-.011.028c0 .031-.035.106-.051.106-.008 0-.012.015-.012.035 0 .015-.008.031-.011.031-.008 0-.016.027-.02.059-.008.03-.016.058-.023.058-.008 0-.012.012-.012.027a.312.312 0 0 1-.031.079.19.19 0 0 0-.036.07.217.217 0 0 1-.02.066c-.01.028-.026.063-.03.075l-.067.164c-.031.074-.058.117-.066.117-.004 0-.012.023-.012.05v.047l.09-.003c.055-.004.098-.012.11-.024a.602.602 0 0 0 .1-.215c0-.02.009-.043.02-.058a.081.081 0 0 0 .02-.047c0-.012.008-.024.012-.024.007 0 .015-.011.015-.023a.05.05 0 0 1 .02-.04c.008-.01.02-.026.02-.038a.59.59 0 0 1 .05-.153c.008-.02.02-.05.027-.062.028-.074.055-.137.083-.191a.272.272 0 0 0 .035-.09c0-.016.004-.035.011-.047.036-.07.102-.223.11-.25a.953.953 0 0 1 .062-.156c.02-.04.043-.098.055-.133.012-.031.039-.09.055-.125a.5.5 0 0 0 .03-.094c0-.016.005-.027.013-.027.007 0 .011-.008.011-.02s.016-.05.032-.082c.02-.035.043-.094.058-.133a.925.925 0 0 1 .05-.125.246.246 0 0 0 .032-.074c0-.012.004-.02.012-.02s.012-.011.012-.023c0-.035.043-.148.054-.148.008 0 .012-.012.012-.024a.14.14 0 0 1 .02-.062c.039-.078.085-.188.085-.203 0-.012.004-.024.012-.028s.012-.02.012-.027c0-.012.023-.07.055-.133a.878.878 0 0 0 .05-.125c0-.012.004-.023.012-.027s.016-.02.016-.031c0-.012.011-.051.031-.086a.851.851 0 0 0 .031-.075c0-.007.016-.039.035-.078a.409.409 0 0 0 .032-.09.07.07 0 0 1 .02-.043.071.071 0 0 0 .019-.043c0-.015.004-.03.011-.035.008-.004.012-.02.012-.027 0-.012.024-.07.055-.129a.711.711 0 0 0 .05-.129c0-.02.008-.035.04-.098.008-.015.011-.03.008-.035a.507.507 0 0 0-.176-.007m5.918 0c-.012.003-.016.039-.016.12v.118l.078-.004c.055 0 .082.004.086.012.004.007.012.015.02.015.043.004.14.125.14.172 0 .02.008.04.016.047.039.035.05.176.055.7.004.581.02.741.097.905a.287.287 0 0 1 .028.067c0 .004.015.027.03.05.02.024.032.051.032.055 0 .008.04.047.086.094.059.059.086.094.086.117 0 .032-.059.094-.086.094-.008 0-.027.02-.039.047a.219.219 0 0 1-.035.047c-.004 0-.012.008-.012.02 0 .007-.004.019-.008.019-.008 0-.015.012-.023.031-.004.016-.012.031-.02.031s-.011.008-.011.016-.016.043-.032.082a.806.806 0 0 0-.047.137l-.027.144c-.012.047-.02.262-.02.625a6.148 6.148 0 0 1-.019.582.138.138 0 0 0-.012.055.131.131 0 0 1-.02.055.092.092 0 0 0-.019.05c0 .086-.12.18-.258.2l-.066.007v.207l.176-.003c.27-.008.406-.094.441-.286a.457.457 0 0 1 .024-.078.204.204 0 0 0 .02-.097c.003-.036.007-.07.015-.075.015-.02.015-.09 0-.109-.027-.023 0-1.074.035-1.258a.852.852 0 0 1 .055-.187.721.721 0 0 0 .035-.063.436.436 0 0 1 .183-.172c.079-.039.082-.054.079-.164l-.004-.074-.051-.016c-.094-.027-.254-.207-.254-.289a.168.168 0 0 0-.02-.058c-.023-.055-.035-.125-.043-.328a1.202 1.202 0 0 0-.015-.18c-.02-.02-.02-.824 0-.836.015-.008.015-.07 0-.113a.39.39 0 0 1-.02-.09.233.233 0 0 0-.02-.086.145.145 0 0 1-.015-.055c0-.062-.152-.273-.2-.273a.132.132 0 0 1-.054-.02 1.06 1.06 0 0 0-.351-.007" fill="#3665ef"/><path d="M5.805 5.184c-.035.007-.098.027-.137.039a1.3 1.3 0 0 0-.594.418c-.011.02-.031.043-.043.058a2.195 2.195 0 0 0-.168.324c-.015.036-.054.2-.078.325-.05.238-.012.64.086.965.016.05.133.269.172.316.023.027.059.07.082.101.137.168.32.286.574.364.188.058.606.058.797-.004a1.1 1.1 0 0 0 .684-.711c.054-.172.066-.215.066-.27v-.058h-.348l-.023.105a5.365 5.365 0 0 1-.035.13c-.149.355-.406.546-.75.546a.717.717 0 0 1-.352-.066c-.797-.329-.828-1.825-.047-2.204a.758.758 0 0 1 .348-.097c.379-.031.691.191.813.574.035.113.027.11.207.11.187 0 .187 0 .168-.098-.09-.461-.32-.719-.747-.836l-.12-.035a1.885 1.885 0 0 0-.555.004m2.789.015c-.57.082-.867.383-.84.848.016.289.191.5.5.601l.098.032c.054.023.16.05.222.066.688.145.887.234.977.438.09.207-.024.453-.262.57-.055.023-.105.047-.113.047a.044.044 0 0 0-.031.011c-.094.079-.567.043-.782-.058A.668.668 0 0 1 8.02 7.3c-.032-.16-.008-.145-.204-.149-.168-.004-.171-.004-.18.028-.007.03.032.234.067.32a.65.65 0 0 1 .027.086c.06.195.301.402.57.496.247.082.688.098.91.031.02-.008.071-.023.11-.035.614-.18.82-.867.39-1.293-.058-.055-.077-.07-.233-.152a1.83 1.83 0 0 0-.375-.121 1.233 1.233 0 0 1-.133-.032 2.5 2.5 0 0 0-.137-.03c-.082-.02-.23-.055-.3-.079-.173-.05-.34-.176-.395-.281-.098-.203.027-.461.261-.547.032-.012.07-.023.086-.031.11-.047.438-.047.559 0 .25.101.387.242.422.445.027.16.008.145.2.148l.163.004.016-.03c.023-.052-.028-.274-.09-.4a.912.912 0 0 0-.535-.433 1.505 1.505 0 0 1-.125-.035 2.947 2.947 0 0 0-.5-.012" fill="#000"/></g></svg>