<svg xmlns="http://www.w3.org/2000/svg" width="16" height="16" version="1.1" viewBox="0 0 16 16"><g fill-opacity="1" fill-rule="evenodd" stroke="none"><path d="M7.504.16c0 .008-.086.016-.23.016-.184 0-.235.004-.247.023C7.02.215 6.97.223 6.84.23c-.235.012-.328.024-.34.051-.004.016-.035.024-.102.024-.05 0-.093.008-.093.015 0 .008-.035.016-.082.016-.059 0-.078.008-.078.023 0 .02-.02.024-.082.024-.043 0-.079.008-.079.015 0 .012-.027.016-.062.016s-.074.012-.086.027a.157.157 0 0 1-.082.024c-.031 0-.059.008-.059.015 0 .008-.023.016-.054.016-.04 0-.055.008-.055.024 0 .02-.02.023-.066.023-.036 0-.063.008-.063.016 0 .011-.027.015-.059.015-.039 0-.054.008-.054.028 0 .015-.016.023-.063.023-.035 0-.066.008-.066.016 0 .007-.02.015-.047.015s-.055.008-.059.024c-.004.011-.027.023-.046.023-.02 0-.043.008-.047.016-.004.011-.032.015-.059.015-.027 0-.05.012-.055.028-.004.011-.027.023-.047.023-.023 0-.039.008-.039.016s-.02.015-.039.015c-.027 0-.043.008-.043.024 0 .015-.011.023-.03.023-.044 0-.161.051-.161.067 0 .007-.008.015-.02.015-.027 0-.14.051-.14.067 0 .008-.008.011-.02.011-.035 0-.105.04-.105.063 0 .008-.02.02-.043.02-.02 0-.04.003-.04.015 0 .008-.015.016-.03.016-.02 0-.04.011-.043.023-.004.012-.02.024-.036.024a.227.227 0 0 0-.074.039.268.268 0 0 1-.07.043c-.012 0-.02.004-.02.011 0 .008-.015.02-.039.024-.02.008-.039.02-.039.027 0 .008-.011.016-.023.016-.016 0-.024.008-.024.015 0 .008-.011.016-.023.016a.2.2 0 0 0-.063.04c-.023.022-.054.042-.066.042-.016 0-.031.008-.035.02a.18.18 0 0 1-.063.054.154.154 0 0 0-.054.04c0 .007-.012.015-.024.015-.015 0-.023.004-.023.016 0 .007-.012.015-.028.015a.023.023 0 0 0-.023.024c0 .011-.012.023-.027.023-.035 0-.082.035-.082.063 0 .007-.012.015-.028.015-.011 0-.023.008-.023.02 0 .008-.008.015-.02.015-.011 0-.039.016-.062.04a.144.144 0 0 1-.059.038c-.011 0-.02.012-.02.024s-.023.035-.054.047c-.031.015-.055.035-.055.043 0 .008-.007.015-.02.015-.019 0-.062.04-.062.063a.017.017 0 0 1-.015.015c-.024 0-.063.043-.063.063 0 .012-.008.02-.02.02-.019 0-.062.039-.062.062 0 .008-.012.016-.027.016-.02 0-.043.02-.063.043-.015.02-.035.039-.043.039a.99.99 0 0 0-.187.195c0 .004-.008.012-.02.008-.011-.004-.015.004-.015.015.004.012-.004.02-.016.02-.027 0-.187.18-.187.215 0 .012-.008.027-.02.027-.02 0-.063.04-.063.063a.017.017 0 0 1-.015.015c-.02 0-.063.04-.063.055 0 .008-.02.027-.039.047-.023.023-.043.05-.043.066 0 .012-.007.024-.023.024a.025.025 0 0 0-.024.023c0 .008-.015.031-.039.047-.023.02-.039.043-.039.063 0 .015-.007.027-.015.027-.012 0-.02.012-.02.023 0 .016-.008.028-.015.028-.028 0-.063.039-.063.07 0 .012-.012.027-.023.035a.033.033 0 0 0-.024.031c0 .012-.008.024-.015.024-.012 0-.016.008-.016.015 0 .008-.012.028-.024.04-.046.05-.058.07-.058.085 0 .008-.012.02-.024.024-.011.004-.023.023-.023.043 0 .015-.008.031-.016.031-.011 0-.015.008-.015.016 0 .011-.012.027-.024.039-.05.058-.058.074-.058.105 0 .016-.012.031-.024.031a.025.025 0 0 0-.023.024c0 .016-.008.023-.016.023-.011 0-.015.02-.015.043 0 .024-.012.04-.028.04-.011 0-.023.015-.023.038 0 .024-.008.04-.016.04s-.015.011-.015.027c0 .012-.008.023-.016.023s-.02.016-.023.04c-.008.023-.02.035-.028.03-.008-.003-.012.008-.012.032 0 .02-.011.043-.027.047-.012.004-.023.023-.023.043 0 .015-.008.03-.016.03s-.016.02-.016.04c0 .027-.007.04-.023.04s-.023.015-.023.042c0 .02-.008.04-.016.04s-.016.019-.016.038c0 .027-.011.04-.023.04-.016 0-.027.015-.027.042 0 .02-.004.04-.016.04-.008 0-.016.015-.016.038 0 .02-.011.043-.023.047-.012.004-.024.024-.024.04 0 .019-.007.038-.015.042-.008.004-.016.035-.016.067 0 .035-.008.054-.023.054-.016 0-.028.016-.028.04 0 .023-.004.038-.015.038-.008 0-.016.028-.016.055 0 .04-.008.059-.023.059-.016 0-.024.015-.024.039 0 .023-.008.039-.015.039-.008 0-.016.027-.016.062 0 .043-.008.067-.023.075-.016.003-.028.027-.028.054 0 .028-.004.051-.015.051-.008 0-.016.027-.016.063 0 .046-.004.066-.023.066-.016 0-.024.016-.024.055 0 .03-.008.054-.016.054-.007 0-.015.028-.015.059a.157.157 0 0 1-.024.082c-.015.012-.027.05-.027.086 0 .035-.004.062-.016.062-.007 0-.015.036-.015.079 0 .062-.004.082-.024.082-.015 0-.023.02-.023.078 0 .047-.008.082-.016.082s-.015.043-.015.093c0 .07-.008.098-.024.102-.02.008-.023.04-.023.125 0 .063-.008.11-.02.11-.008 0-.015.058-.015.144 0 .11-.004.144-.024.152-.02.008-.023.043-.023.2 0 .117-.008.195-.016.195-.012 0-.015.199-.015.574 0 .375.003.574.015.574.008 0 .016.078.016.196 0 .156.004.19.023.199.02.008.024.043.024.152 0 .086.007.145.015.145.012 0 .02.046.02.109 0 .086.004.117.023.125.016.004.024.031.024.102 0 .05.008.093.015.093.008 0 .016.035.016.078 0 .055.008.082.023.09.016.004.024.032.024.082 0 .04.008.07.015.07.012 0 .016.032.016.075 0 .047.008.074.027.082.016.004.024.027.024.07 0 .035.008.063.015.063.008 0 .016.023.016.054 0 .04.008.055.024.055.02 0 .023.02.023.066 0 .036.008.063.016.063.011 0 .015.027.015.059 0 .039.008.054.028.054.015 0 .023.016.023.063 0 .035.008.066.016.066.007 0 .015.016.015.04 0 .019.012.046.024.062a.1.1 0 0 1 .023.054c0 .02.008.036.016.036.011 0 .015.015.015.039 0 .023.012.039.028.039.015 0 .023.02.023.054 0 .032.008.063.016.067.008.004.015.023.015.043 0 .015.012.035.024.039.012.004.023.027.023.047 0 .023.008.039.016.039.012 0 .016.02.016.039 0 .027.011.043.027.043.012 0 .023.011.023.039 0 .02.008.039.016.039s.016.02.016.039c0 .027.007.043.023.043s.023.012.023.039c0 .02.008.04.016.04s.016.019.016.038c0 .027.011.04.023.04.016 0 .027.015.027.042 0 .02.004.04.016.04.008 0 .016.01.016.03 0 .016.015.043.039.06a.091.091 0 0 1 .039.065c0 .02.012.036.023.036.016 0 .028.015.028.039 0 .023.004.043.015.043.008 0 .016.007.016.023 0 .012.012.024.023.024.012 0 .024.015.024.03 0 .032.008.048.058.106.012.012.024.028.024.04 0 .007.004.015.012.015.007 0 .019.02.023.039.008.023.02.04.027.04.008 0 .016.01.016.023 0 .011.02.03.039.05.023.016.043.043.043.059 0 .015.004.027.016.027.007 0 .015.012.015.028 0 .011.008.023.024.023.011 0 .023.012.023.027 0 .036.035.082.063.082.007 0 .015.008.015.02 0 .008.012.027.024.039.046.05.058.07.058.086 0 .008.008.016.016.016s.015.011.015.027c0 .012.008.023.02.023.023 0 .055.035.066.075.008.02.02.035.028.035s.015.008.015.02c0 .019.04.062.063.062.008 0 .015.008.015.015 0 .024.043.063.063.063.012 0 .02.012.02.02 0 .011.015.035.039.05.023.02.039.04.039.05.004.024.093.122.113.122.008 0 .016.004.012.012-.008.027.379.386.418.386.007 0 .02.008.02.02 0 .02.038.063.062.063.007 0 .015.007.015.015 0 .016.04.063.055.063.004 0 .027.02.05.039.024.023.055.043.067.043.012 0 .02.007.02.023 0 .012.011.024.023.024.008 0 .031.015.047.039.02.023.043.039.063.039.015 0 .027.007.027.015 0 .012.012.02.023.02.016 0 .028.008.028.023 0 .012.007.024.023.024.012 0 .02.008.016.015-.008.008.007.016.03.016.024 0 .04.008.04.023 0 .016.012.024.023.024.016 0 .028.008.028.015 0 .012.008.016.015.016.008 0 .028.012.04.024.05.046.07.058.085.058.008 0 .02.012.024.024.004.011.023.023.043.023.015 0 .031.008.031.016 0 .011.008.015.016.015.011 0 .027.012.039.024.058.047.074.058.097.058.012 0 .028.012.036.024.003.011.02.023.03.023.013 0 .02.008.02.016 0 .011.02.015.043.015.02 0 .04.012.04.024 0 .008.027.031.058.047.105.05.133.066.133.078 0 .008.015.012.039.012.02 0 .043.011.047.027.004.012.023.023.039.023.02 0 .039.008.043.016.004.008.023.016.039.016.015 0 .035.011.039.023.004.012.023.023.043.023.015 0 .031.008.031.016s.02.016.04.016c.027 0 .038.011.038.023 0 .016.016.027.04.027.023 0 .046.004.05.016.004.008.024.016.04.016.015 0 .034.011.038.023.004.012.028.024.051.024.023 0 .035.007.031.015-.004.012.008.016.028.016.023 0 .05.012.058.023.012.016.04.028.059.028.02 0 .043.004.047.015.004.008.027.016.046.016.02 0 .043.012.047.023.004.012.032.024.059.024.023 0 .05.008.055.015a.071.071 0 0 0 .043.016.11.11 0 0 1 .058.023c.012.016.04.028.059.028.023 0 .043.004.05.015.005.008.032.016.055.016a.13.13 0 0 1 .074.023.1.1 0 0 0 .063.024c.02 0 .043.008.047.016.004.007.043.015.082.015.05 0 .07.008.07.024 0 .015.024.027.067.03.152.02.199.032.21.052.008.015.044.023.106.023.055 0 .098.008.098.016s.043.015.093.015c.07 0 .098.008.102.024.008.02.04.023.125.023.063 0 .11.008.11.02 0 .008.058.015.144.015.11 0 .144.004.152.024.008.02.047.023.239.023.144 0 .234.008.234.016 0 .012.176.015.496.015s.496-.003.496-.015c0-.008.09-.016.234-.016.192 0 .23-.004.239-.023.008-.02.043-.024.152-.024.086 0 .145-.007.145-.015 0-.012.046-.02.109-.02.086 0 .117-.004.125-.023.004-.016.031-.024.102-.024.05 0 .093-.008.093-.015 0-.008.043-.016.098-.016.062 0 .098-.008.105-.023.012-.02.059-.032.211-.051.043-.004.067-.016.067-.031 0-.016.02-.024.07-.024.04 0 .078-.008.082-.015.004-.008.027-.016.047-.016a.1.1 0 0 0 .063-.024.13.13 0 0 1 .074-.023c.023 0 .05-.008.054-.016.008-.011.028-.015.051-.015.02 0 .047-.012.059-.028a.123.123 0 0 1 .066-.023c.024 0 .043-.008.043-.016 0-.007.02-.015.047-.015s.055-.008.059-.024c.004-.011.027-.023.046-.023.02 0 .043-.008.047-.016.004-.011.028-.015.047-.015.02 0 .047-.012.059-.028.008-.011.035-.023.055-.023.023 0 .039-.008.039-.016s.015-.015.03-.015c.02 0 .04-.012.044-.024.004-.012.027-.023.047-.023.023 0 .039-.008.039-.016 0-.012.02-.016.039-.016.027 0 .043-.011.043-.027 0-.012.011-.023.039-.023.02 0 .039-.008.039-.016s.016-.016.031-.016c.02 0 .04-.011.043-.023.004-.012.027-.023.047-.023.023 0 .04-.008.04-.016s.015-.016.03-.016c.02 0 .04-.011.043-.023.004-.016.028-.027.047-.027.024 0 .04-.004.04-.016 0-.008.007-.016.015-.016a.16.16 0 0 0 .07-.039.177.177 0 0 1 .078-.039c.016 0 .028-.012.028-.023 0-.016.015-.028.039-.028.023 0 .043-.004.043-.015 0-.008.007-.016.023-.016a.025.025 0 0 0 .024-.023c0-.012.015-.024.03-.024.02 0 .044-.008.06-.02.05-.046.07-.062.085-.062.008 0 .016-.004.016-.015 0-.008.016-.016.031-.016.02 0 .04-.012.043-.023.004-.012.016-.024.024-.024.011 0 .027-.008.039-.02.054-.046.07-.062.086-.062.011 0 .015-.004.015-.016 0-.007.012-.015.028-.015a.023.023 0 0 0 .023-.024c0-.011.012-.023.031-.023.035 0 .078-.035.078-.063 0-.007.012-.015.028-.015.011 0 .023-.008.023-.02 0-.008.012-.015.027-.015.02 0 .043-.016.063-.04.016-.023.04-.038.047-.038a.025.025 0 0 0 .023-.024c0-.016.008-.023.02-.023s.05-.028.086-.059a.23.23 0 0 1 .074-.055c.004 0 .012-.011.012-.023 0-.016.008-.024.015-.024.024 0 .063-.042.063-.062 0-.012.012-.02.02-.02.035 0 .46-.394.46-.421 0-.008.008-.024.02-.036.047-.05.062-.07.062-.085 0-.008.008-.016.016-.016.023 0 .062-.043.062-.063a.02.02 0 0 1 .02-.02c.02 0 .063-.038.063-.062 0-.007.007-.015.023-.015.012 0 .023-.008.023-.012a.21.21 0 0 1 .04-.059.176.176 0 0 0 .039-.062c0-.02.042-.059.062-.059.012 0 .02-.011.02-.023 0-.016.007-.027.015-.027a.017.017 0 0 0 .016-.016c0-.008.008-.027.02-.04.046-.054.062-.07.062-.085 0-.012.008-.02.015-.02.028 0 .063-.046.063-.082 0-.015.012-.027.023-.027a.023.023 0 0 0 .024-.023c0-.016.008-.028.015-.028.012 0 .016-.015.016-.039 0-.02.008-.039.02-.039.023 0 .062-.039.062-.062 0-.012.008-.02.016-.02s.02-.016.027-.039c.004-.02.016-.04.024-.04.007 0 .011-.007.011-.019 0-.011.02-.039.043-.062.02-.024.04-.059.04-.078 0-.016.011-.031.023-.031a.025.025 0 0 0 .023-.024c0-.016.008-.023.016-.023.011 0 .015-.02.015-.043 0-.024.012-.04.028-.04.011 0 .023-.015.023-.038 0-.024.008-.04.016-.04s.015-.007.015-.019c0-.008.008-.027.02-.04.05-.054.059-.07.059-.1 0-.02.011-.036.027-.036.012 0 .023-.012.023-.039 0-.02.008-.039.016-.039s.016-.016.016-.039c0-.02.011-.043.023-.047.012-.004.023-.023.023-.043 0-.015.008-.031.016-.031s.016-.02.016-.04c0-.027.011-.038.023-.038.016 0 .027-.016.027-.043 0-.02.004-.04.016-.04.008 0 .016-.015.016-.038 0-.02.011-.043.023-.047.012-.004.024-.024.024-.04 0-.019.007-.038.015-.042.008-.004.016-.035.016-.067 0-.035.008-.054.023-.054.016 0 .028-.016.028-.04 0-.023.004-.038.015-.038.008 0 .016-.02.016-.04 0-.019.012-.046.023-.058a.09.09 0 0 0 .024-.059c0-.02.008-.035.015-.035.008 0 .016-.031.016-.066 0-.047.008-.063.023-.063.02 0 .028-.015.028-.054 0-.032.004-.059.015-.059.008 0 .016-.027.016-.063 0-.046.004-.066.023-.066.016 0 .024-.016.024-.055 0-.03.008-.054.016-.054.007 0 .015-.028.015-.063 0-.043.008-.066.024-.07.02-.008.027-.035.027-.082 0-.043.004-.074.016-.074.007 0 .015-.036.015-.079 0-.062.004-.082.024-.082.015 0 .023-.02.023-.078 0-.047.008-.082.016-.082s.015-.043.015-.093c0-.063.008-.102.024-.114.02-.015.023-.05.023-.12 0-.06.008-.102.02-.102.008 0 .015-.059.015-.145 0-.11.004-.144.024-.152.02-.008.023-.043.023-.2a.77.77 0 0 1 .016-.203c.012-.004.015-.214.015-.574 0-.367-.003-.566-.015-.566-.008 0-.016-.078-.016-.196 0-.156-.004-.19-.023-.199-.02-.008-.024-.043-.024-.152 0-.086-.007-.145-.015-.145-.012 0-.02-.043-.02-.101 0-.07-.004-.11-.023-.125-.016-.016-.024-.059-.024-.113 0-.051-.008-.09-.015-.09-.008 0-.016-.035-.016-.075 0-.046-.008-.074-.023-.082-.016-.003-.024-.03-.024-.085 0-.043-.008-.079-.015-.079-.012 0-.016-.027-.016-.062s-.012-.074-.027-.086a.157.157 0 0 1-.024-.082c0-.031-.008-.059-.015-.059-.008 0-.016-.023-.016-.054 0-.04-.008-.055-.024-.055-.02 0-.023-.02-.023-.066 0-.036-.008-.063-.016-.063-.011 0-.015-.027-.015-.059 0-.039-.008-.054-.028-.054-.015 0-.023-.02-.023-.067 0-.039-.004-.058-.016-.054-.007.007-.015-.008-.015-.04 0-.03-.008-.046-.024-.046-.015 0-.023-.02-.023-.059 0-.027-.008-.055-.016-.055-.011 0-.015-.015-.015-.039 0-.023-.012-.039-.028-.039-.015 0-.023-.02-.023-.054 0-.032-.008-.063-.016-.067-.008-.004-.015-.023-.015-.043 0-.015-.012-.035-.024-.039-.012-.004-.023-.027-.023-.047 0-.023-.008-.039-.016-.039-.012 0-.016-.02-.016-.039 0-.027-.011-.043-.027-.043-.012 0-.023-.011-.023-.039 0-.02-.008-.039-.016-.039s-.016-.016-.016-.031c0-.02-.011-.04-.023-.043-.012-.004-.023-.024-.023-.04 0-.015-.008-.034-.016-.038-.008-.004-.016-.024-.016-.043 0-.016-.011-.035-.023-.04-.016-.003-.027-.027-.027-.046 0-.024-.004-.035-.016-.031-.008.003-.016-.004-.016-.02s-.015-.047-.039-.07a.134.134 0 0 1-.039-.078c0-.016-.012-.032-.023-.032-.016 0-.028-.015-.028-.039 0-.023-.004-.043-.015-.043-.008 0-.016-.007-.016-.023a.025.025 0 0 0-.023-.024c-.012 0-.024-.015-.024-.03 0-.02-.02-.055-.039-.079-.023-.023-.043-.05-.043-.062 0-.012-.004-.02-.015-.02-.008 0-.016-.016-.016-.031 0-.02-.012-.04-.023-.043-.012-.004-.024-.016-.024-.024 0-.011-.008-.027-.02-.039-.042-.047-.062-.07-.062-.078 0-.008-.016-.031-.039-.054-.02-.024-.04-.055-.04-.07 0-.016-.007-.028-.015-.02-.008.004-.015-.004-.015-.016 0-.016-.012-.023-.024-.023-.015 0-.023-.012-.023-.028 0-.011-.008-.023-.02-.023-.008 0-.015-.012-.015-.027 0-.02-.016-.043-.04-.063-.023-.016-.038-.04-.038-.047a.025.025 0 0 0-.024-.023c-.016 0-.023-.012-.023-.024 0-.015-.02-.043-.043-.066-.02-.02-.04-.04-.04-.047 0-.016-.042-.055-.062-.055a.017.017 0 0 1-.015-.015c0-.024-.043-.063-.063-.063-.012 0-.02-.015-.02-.031s-.015-.043-.039-.059c-.023-.015-.039-.035-.039-.043a.522.522 0 0 0-.148-.144c-.008.004-.012-.004-.012-.012a.872.872 0 0 0-.187-.191c-.008 0-.028-.02-.043-.04-.02-.023-.043-.042-.063-.042-.015 0-.027-.008-.027-.016 0-.023-.043-.062-.063-.062a.02.02 0 0 1-.02-.02c0-.02-.038-.063-.062-.063a.017.017 0 0 1-.015-.015c0-.024-.043-.063-.063-.063-.011 0-.02-.007-.02-.015s-.023-.028-.054-.043c-.031-.012-.055-.035-.055-.047a.025.025 0 0 0-.023-.024c-.016 0-.027-.007-.027-.015a.017.017 0 0 0-.016-.016.073.073 0 0 1-.04-.02c-.054-.046-.07-.062-.085-.062-.012 0-.02-.008-.02-.015 0-.028-.046-.063-.082-.063-.015 0-.027-.012-.027-.023a.023.023 0 0 0-.023-.024c-.016 0-.028-.008-.028-.015 0-.012-.008-.016-.015-.016-.008 0-.028-.012-.04-.024-.05-.046-.07-.058-.085-.058-.008 0-.02-.012-.024-.024-.004-.011-.02-.023-.035-.023-.012 0-.043-.02-.066-.043a.208.208 0 0 0-.063-.039c-.012 0-.023-.008-.023-.016 0-.007-.008-.015-.024-.015-.011 0-.023-.008-.023-.016s-.02-.02-.04-.027c-.023-.004-.038-.016-.038-.024 0-.007-.008-.011-.02-.011a.268.268 0 0 1-.07-.043.227.227 0 0 0-.074-.04c-.016 0-.032-.011-.036-.023-.003-.012-.023-.023-.043-.023-.015 0-.03-.008-.03-.016 0-.012-.02-.016-.04-.016-.023 0-.043-.011-.043-.02 0-.022-.07-.062-.105-.062-.012 0-.02-.003-.02-.011 0-.016-.113-.067-.14-.067-.012 0-.02-.007-.02-.015 0-.016-.117-.067-.16-.067-.02 0-.031-.008-.031-.023 0-.016-.016-.024-.043-.024-.02 0-.04-.007-.04-.015s-.015-.016-.03-.016a.099.099 0 0 1-.06-.023c-.011-.016-.046-.028-.07-.028-.027 0-.046-.004-.046-.015 0-.008-.02-.016-.04-.016-.019 0-.042-.012-.046-.023-.004-.016-.032-.024-.059-.024-.027 0-.047-.008-.047-.015 0-.008-.031-.016-.066-.016-.047 0-.063-.008-.063-.023 0-.02-.015-.028-.054-.028-.032 0-.059-.004-.059-.015 0-.008-.027-.016-.063-.016-.039 0-.062-.008-.07-.023-.004-.012-.031-.024-.058-.024-.028 0-.047-.008-.047-.016 0-.007-.028-.015-.059-.015a.157.157 0 0 1-.082-.024c-.012-.015-.05-.027-.086-.027-.035 0-.062-.004-.062-.016 0-.007-.036-.015-.079-.015-.062 0-.082-.004-.082-.024 0-.015-.02-.023-.078-.023-.047 0-.082-.008-.082-.016S9.652.305 9.602.305c-.07 0-.098-.008-.102-.024-.008-.015-.031-.023-.074-.023-.035 0-.067-.008-.074-.02A.652.652 0 0 0 9.16.223c-.144 0-.183-.004-.191-.024C8.96.18 8.922.176 8.73.176c-.144 0-.234-.008-.234-.016C8.496.148 8.32.145 8 .145s-.496.003-.496.015m1.078.406c.07.016.18.028.25.028s.129.004.137.015c.004.008.07.016.148.016.13 0 .281.031.317.07a.292.292 0 0 0 .078.008c.039 0 .09.012.113.024A.245.245 0 0 0 9.73.75c.032.004.063.008.07.02.005.007.032.015.055.015.024 0 .067.008.09.024a.279.279 0 0 0 .09.023c.024 0 .047.008.055.016.004.007.023.015.047.015.02 0 .054.012.082.024A.176.176 0 0 0 10.3.91c.02 0 .035.008.035.02 0 .007.023.015.05.015.032 0 .067.012.087.024a.136.136 0 0 0 .066.023c.02 0 .035.008.035.016s.02.015.04.015c.019 0 .05.012.066.024a.15.15 0 0 0 .066.023c.024 0 .04.008.04.02 0 .008.019.015.042.015.027 0 .059.008.067.024a.087.087 0 0 0 .05.023c.016 0 .032.008.032.016s.011.016.027.016.086.027.156.062.137.067.145.067c.011 0 .023.003.027.011a.327.327 0 0 0 .133.067c.012 0 .023.007.023.015s.012.02.028.024c.015.008.062.03.109.058.043.024.105.059.137.075.027.015.078.042.105.066.028.02.055.035.063.035s.035.02.058.04c.024.023.055.038.067.038.015 0 .03.012.035.028.004.011.02.023.031.023.012 0 .024.008.024.016 0 .007.007.015.02.015.01 0 .038.02.062.04.023.023.046.038.054.038s.235.164.254.188c.008.008.047.035.082.062l.082.063c.028.027.09.078.14.117a7.891 7.891 0 0 1 .84.836c.032.039.063.078.075.09.012.012.023.027.023.035 0 .008.004.02.012.023a.51.51 0 0 1 .066.075c.032.039.075.093.102.12a.49.49 0 0 1 .055.079c.004.02.027.047.047.062.02.016.039.04.039.051 0 .008.015.035.039.059.02.027.039.05.039.062 0 .008.004.016.011.016.008 0 .04.043.07.098a.32.32 0 0 0 .067.093c.008 0 .012.012.012.028 0 .011.02.046.039.074.023.031.04.058.04.066 0 .004.038.067.081.137.043.074.078.14.078.152 0 .012.008.024.016.028a.327.327 0 0 1 .066.132c0 .012.004.024.012.028a.327.327 0 0 1 .066.133c0 .011.008.023.012.023.008 0 .027.035.043.074.016.043.04.098.05.121a.15.15 0 0 1 .024.067c0 .015.008.027.016.027.012 0 .016.012.016.031a.21.21 0 0 0 .027.082c.05.098.055.11.055.141 0 .016.007.035.015.04.008.007.024.05.04.1.015.051.038.114.05.145a.265.265 0 0 1 .023.082c0 .016.004.035.016.043.008.004.016.035.016.063 0 .03.008.054.015.054.008 0 .02.028.024.063.004.031.015.07.023.086.012.015.016.054.016.086 0 .031.008.054.015.054.008 0 .02.036.024.079a.59.59 0 0 0 .027.101.28.28 0 0 1 .016.098c0 .039.008.074.015.086.016.015.043.203.06.398a.41.41 0 0 0 .023.129c.066.078.066 1.758 0 1.836a.41.41 0 0 0-.024.129c-.016.195-.043.383-.059.398a.195.195 0 0 0-.015.086.28.28 0 0 1-.016.098.59.59 0 0 0-.027.101c-.004.043-.016.079-.02.079-.007 0-.02.03-.023.066-.012.105-.043.223-.059.223-.007 0-.015.027-.015.062s-.008.067-.016.07c-.012.008-.016.024-.016.04a.194.194 0 0 1-.027.074.228.228 0 0 0-.023.074c0 .031-.004.039-.051.14a.219.219 0 0 0-.027.075c0 .023-.004.035-.055.133a.24.24 0 0 0-.027.07c0 .027-.051.14-.067.14-.008 0-.012.012-.012.032 0 .027-.035.101-.105.238-.14.277-.188.363-.2.367a.033.033 0 0 0-.015.028c0 .011-.016.05-.035.082-.02.035-.05.09-.07.12-.016.036-.036.06-.043.06-.008 0-.012.011-.012.019a.19.19 0 0 1-.035.07c-.02.028-.051.074-.07.11a.473.473 0 0 1-.055.085.598.598 0 0 0-.059.086.603.603 0 0 1-.066.086.413.413 0 0 0-.035.051.793.793 0 0 1-.055.078 7.77 7.77 0 0 1-.258.32c-.176.204-.523.567-.539.567-.004 0-.066.059-.137.125-.07.07-.164.156-.207.188a.542.542 0 0 0-.082.078c-.004.004-.011.011-.023.011s-.031.016-.05.04c-.017.023-.036.038-.048.038a.23.23 0 0 0-.074.055c-.066.059-.246.188-.27.188-.011 0-.015.004-.015.011a.927.927 0 0 1-.211.149c-.008 0-.035.015-.059.039a.302.302 0 0 1-.054.039c-.008 0-.07.035-.141.078a.667.667 0 0 1-.152.082c-.016 0-.024.008-.024.012 0 .02-.504.277-.539.277-.012 0-.023.008-.023.016s-.016.015-.04.015c-.023 0-.038.004-.038.012 0 .016-.114.067-.141.067a.24.24 0 0 0-.07.027c-.098.05-.11.055-.141.055a.099.099 0 0 0-.059.023.111.111 0 0 1-.054.023c-.016 0-.035.008-.04.016-.007.008-.03.016-.054.016a.12.12 0 0 0-.059.015.826.826 0 0 1-.203.067.21.21 0 0 0-.07.023.255.255 0 0 1-.09.024c-.023 0-.047.007-.05.015-.008.008-.036.016-.063.016a.297.297 0 0 0-.102.023.222.222 0 0 1-.105.028c-.031 0-.063.004-.067.015-.007.008-.046.016-.086.016a.224.224 0 0 0-.093.015c-.016.016-.223.047-.407.06a.425.425 0 0 0-.136.023c-.086.07-1.688.07-1.774 0a.425.425 0 0 0-.136-.024c-.184-.012-.391-.043-.407-.059a.224.224 0 0 0-.093-.015c-.04 0-.079-.008-.082-.016-.004-.008-.047-.015-.09-.023a.27.27 0 0 1-.102-.024.232.232 0 0 0-.082-.023.743.743 0 0 1-.223-.059.098.098 0 0 0-.05-.015.562.562 0 0 1-.121-.035c-.047-.02-.11-.036-.133-.043a.168.168 0 0 1-.067-.02.25.25 0 0 0-.058-.02c-.024-.007-.043-.019-.043-.027s-.02-.015-.043-.015c-.04 0-.047-.004-.149-.055a.219.219 0 0 0-.074-.027.327.327 0 0 1-.133-.067c-.004-.008-.015-.012-.027-.012a.127.127 0 0 1-.05-.015c-.423-.203-.567-.281-.567-.29 0-.007-.012-.015-.024-.015a.287.287 0 0 1-.12-.066.087.087 0 0 0-.04-.02.295.295 0 0 1-.066-.039.511.511 0 0 0-.09-.059c-.031-.015-.059-.035-.059-.042 0-.008-.011-.012-.023-.012-.023 0-.04-.012-.098-.063-.011-.011-.027-.02-.035-.02-.008 0-.031-.019-.055-.038-.023-.024-.05-.04-.058-.04s-.031-.019-.055-.038a.306.306 0 0 0-.07-.051.284.284 0 0 1-.078-.051c-.028-.027-.082-.07-.121-.102a.51.51 0 0 1-.075-.066c-.003-.008-.015-.012-.027-.012a.045.045 0 0 1-.027-.011.313.313 0 0 0-.063-.059 11.07 11.07 0 0 1-.719-.691c-.16-.172-.183-.204-.25-.29a.648.648 0 0 0-.062-.078.469.469 0 0 1-.063-.082 1.417 1.417 0 0 0-.085-.101c-.02-.024-.036-.05-.036-.063 0-.007-.007-.02-.015-.02s-.016-.007-.016-.019a.034.034 0 0 0-.023-.031c-.012-.004-.032-.035-.047-.066-.016-.032-.035-.059-.043-.059-.008 0-.016-.012-.016-.023 0-.012-.008-.024-.015-.024-.008 0-.016-.012-.024-.027a.533.533 0 0 0-.086-.145.217.217 0 0 1-.035-.066c0-.012-.004-.02-.012-.02-.011 0-.02-.011-.082-.132a.449.449 0 0 0-.05-.082c-.008-.004-.016-.02-.016-.032 0-.015-.016-.043-.031-.062a.15.15 0 0 1-.043-.07c-.004-.02-.016-.036-.024-.036s-.015-.015-.015-.031a.069.069 0 0 0-.024-.05.068.068 0 0 1-.023-.048c0-.02-.008-.03-.016-.03s-.016-.013-.016-.032a.087.087 0 0 0-.023-.05c-.016-.009-.023-.032-.023-.048 0-.02-.008-.031-.02-.031-.008 0-.016-.012-.016-.027a.113.113 0 0 0-.023-.063.136.136 0 0 1-.023-.066c0-.02-.008-.035-.016-.035s-.016-.02-.016-.04c0-.023-.007-.042-.015-.042s-.02-.016-.024-.036a.826.826 0 0 0-.066-.16.26.26 0 0 1-.024-.074c0-.02-.007-.035-.015-.04a.074.074 0 0 1-.016-.046c0-.02-.012-.05-.023-.066a.106.106 0 0 1-.024-.067c0-.02-.007-.039-.015-.047-.012-.004-.02-.027-.02-.05 0-.024-.008-.059-.023-.075a.186.186 0 0 1-.024-.086c0-.027-.008-.05-.015-.05-.008 0-.016-.028-.016-.055a.17.17 0 0 0-.023-.082.206.206 0 0 1-.024-.094c0-.031-.008-.058-.015-.058-.012 0-.02-.032-.02-.07 0-.036-.008-.087-.023-.106a.284.284 0 0 1-.024-.11c0-.035-.008-.066-.015-.066-.008 0-.016-.039-.016-.086a.508.508 0 0 0-.024-.144.58.58 0 0 1-.023-.16c0-.06-.008-.11-.016-.114a.96.96 0 0 1-.023-.195 1.221 1.221 0 0 0-.027-.246 9.22 9.22 0 0 1 0-1.04 1.21 1.21 0 0 0 .027-.238.887.887 0 0 1 .023-.187c.008-.004.016-.059.016-.117 0-.067.008-.13.023-.157a.362.362 0 0 0 .024-.128c0-.047.008-.086.015-.094.008-.004.016-.04.016-.074a.28.28 0 0 1 .024-.11.218.218 0 0 0 .023-.105c0-.04.008-.07.02-.07.007 0 .015-.028.015-.06 0-.034.012-.073.024-.093a.17.17 0 0 0 .023-.082c0-.027.008-.055.016-.055.007 0 .015-.023.015-.05 0-.032.012-.067.024-.086.015-.016.023-.051.023-.075 0-.023.008-.046.02-.05a.074.074 0 0 0 .015-.047c0-.02.008-.051.024-.067a.124.124 0 0 0 .023-.058c0-.032.004-.04.055-.137a.319.319 0 0 0 .023-.086c0-.016.008-.031.02-.039.008-.004.015-.027.015-.047s.008-.047.024-.055a.087.087 0 0 0 .023-.05c0-.016.008-.032.016-.032s.016-.015.016-.035a.15.15 0 0 1 .023-.07.124.124 0 0 0 .023-.059c0-.015.008-.027.016-.027.012 0 .02-.012.02-.031 0-.016.007-.04.023-.047a.087.087 0 0 0 .024-.05c0-.02.007-.032.015-.032s.016-.012.016-.031c0-.016.011-.04.023-.047a.069.069 0 0 0 .024-.051.06.06 0 0 1 .011-.035c.012-.004.036-.043.118-.196a.971.971 0 0 1 .05-.085.033.033 0 0 0 .016-.028c0-.011.008-.027.02-.039a.232.232 0 0 0 .05-.07.936.936 0 0 1 .102-.164.19.19 0 0 0 .035-.07c0-.008.008-.016.016-.016.007 0 .015-.012.015-.024 0-.011.004-.023.012-.023a.57.57 0 0 0 .094-.117 2.847 2.847 0 0 1 .215-.285c.03-.04.058-.075.062-.079a.99.99 0 0 0 .066-.082c.067-.085.051-.07.262-.296.098-.102.203-.211.238-.243.036-.035.11-.105.164-.16.06-.054.106-.097.11-.097a.462.462 0 0 0 .07-.063l.113-.098c.024-.02.07-.054.102-.082a.184.184 0 0 1 .066-.046c.008 0 .028-.016.047-.036a.695.695 0 0 1 .164-.125c.004 0 .028-.02.051-.039a.229.229 0 0 1 .055-.043.165.165 0 0 0 .055-.035.98.98 0 0 1 .183-.117.443.443 0 0 0 .063-.05.165.165 0 0 1 .054-.036.214.214 0 0 0 .063-.035.629.629 0 0 1 .11-.067.219.219 0 0 0 .07-.042c.003-.008.023-.016.039-.016.02 0 .03-.004.03-.012s.016-.02.032-.027c.02-.008.133-.067.254-.125.121-.063.238-.121.262-.133A.21.21 0 0 1 5 1.184c.012 0 .023-.008.023-.016s.016-.016.032-.016a.083.083 0 0 0 .05-.023c.008-.016.036-.024.06-.024.034 0 .046-.003.14-.054a.232.232 0 0 1 .078-.028c.027 0 .035-.003.133-.05a.264.264 0 0 1 .101-.028c.028 0 .047-.007.047-.015 0-.012.016-.02.035-.02a.18.18 0 0 0 .082-.023.265.265 0 0 1 .082-.024c.024 0 .043-.008.047-.015.008-.008.035-.016.063-.016a.186.186 0 0 0 .086-.023.157.157 0 0 1 .082-.024c.027 0 .054-.008.058-.015.008-.012.035-.016.067-.016a.3.3 0 0 0 .113-.027.39.39 0 0 1 .117-.024.244.244 0 0 0 .07-.008c.036-.039.188-.07.317-.07A.417.417 0 0 0 7.03.609c.008-.011.07-.02.14-.02.075 0 .18-.007.235-.019.16-.035 1.008-.035 1.176-.004M2.754 5.117a.377.377 0 0 0-.113.063.23.23 0 0 1-.051.035c-.008 0-.016.012-.016.023 0 .012-.015.035-.039.059-.02.02-.039.047-.039.058 0 .012-.008.02-.016.02-.007 0-.02.035-.023.078a.656.656 0 0 1-.023.09c-.028.035-.036.207-.047.996-.008.621-.016.824-.032.84-.011.012-.02.043-.02.074 0 .2-.202.492-.362.524-.063.011-.075.039-.067.175.004.09.008.094.059.11.027.008.05.02.05.027 0 .008.012.016.024.016.04 0 .219.187.219.222 0 .02.004.032.012.032.015 0 .05.113.066.226.008.047.02.121.031.16.008.043.016.36.016.782 0 .703.008.816.058.976a.56.56 0 0 1 .024.117c0 .024.008.043.015.043.008 0 .016.008.016.016 0 .02.055.086.129.16.078.078.156.098.398.098h.207v-.13c0-.14 0-.144-.117-.144-.09 0-.281-.144-.281-.218a.288.288 0 0 0-.035-.082c-.016-.036-.027-.075-.02-.083.004-.011 0-.027-.011-.03-.016-.012-.02-.141-.016-.66.004-.446 0-.661-.012-.692a.917.917 0 0 1-.031-.172.64.64 0 0 0-.02-.137c-.007-.004-.015-.023-.015-.043a.258.258 0 0 0-.024-.086.235.235 0 0 1-.023-.09c0-.023-.008-.043-.016-.043a.54.54 0 0 1-.066-.093.355.355 0 0 0-.066-.098c-.008 0-.012-.008-.012-.016 0-.011-.035-.05-.082-.09-.098-.09-.11-.164-.035-.203.062-.035.109-.078.12-.117a.223.223 0 0 1 .044-.062c.02-.016.031-.04.031-.051a.12.12 0 0 1 .02-.04.504.504 0 0 0 .054-.112.34.34 0 0 1 .04-.094c.011 0 .027-.063.046-.23.008-.063.024-.145.031-.184.016-.051.02-.246.016-.688-.004-.633-.004-.656.059-.797a.287.287 0 0 0 .023-.07.48.48 0 0 1 .098-.14c.007 0 .023-.012.035-.024a.309.309 0 0 1 .195-.074h.07v-.117c0-.094-.003-.122-.023-.13a1.493 1.493 0 0 0-.453.02m2.8-.015a.083.083 0 0 0-.054.058.585.585 0 0 1-.027.078c-.008.02-.028.063-.043.102a.176.176 0 0 1-.04.066c-.007 0-.015.016-.015.032 0 .019-.004.035-.012.042-.008.004-.02.032-.023.06a.647.647 0 0 1-.05.144.708.708 0 0 0-.044.105c0 .012-.004.02-.016.02-.007 0-.015.015-.015.039 0 .023-.008.039-.016.039s-.015.015-.015.031a.124.124 0 0 1-.024.059.124.124 0 0 0-.023.058c0 .027-.035.106-.121.293a.665.665 0 0 0-.047.129 1.912 1.912 0 0 1-.082.191 2.638 2.638 0 0 0-.094.235c-.016.05-.035.094-.043.094-.008 0-.016.015-.016.039 0 .02-.004.043-.011.046-.008.004-.02.032-.028.06-.004.023-.015.046-.023.046s-.016.012-.016.023a.627.627 0 0 1-.066.172.132.132 0 0 0-.016.047c0 .016-.078.195-.136.309a.228.228 0 0 0-.024.074.4.4 0 0 1-.035.105c-.024.043-.05.106-.066.141-.016.035-.032.078-.043.094a.143.143 0 0 0-.012.058c0 .016-.008.036-.016.04-.008.003-.02.03-.027.058-.004.027-.016.047-.024.047-.007 0-.015.016-.015.031a.48.48 0 0 1-.055.14.917.917 0 0 0-.062.161.192.192 0 0 1-.028.062c-.008.004-.015.02-.015.036 0 .039-.047.129-.067.129-.008 0-.011.02-.011.043 0 .019-.008.039-.016.039s-.02.03-.024.07c-.007.039-.02.074-.027.074-.008 0-.016.012-.016.031a.2.2 0 0 1-.039.094.226.226 0 0 0-.039.09c0 .012-.011.05-.027.082-.016.035-.031.078-.04.094-.01.031-.05.129-.081.199-.04.09-.07.144-.082.144-.004 0-.012.028-.012.06v.062l.11-.008c.066 0 .117-.012.132-.028a.72.72 0 0 0 .125-.265c0-.02.012-.051.024-.07a.1.1 0 0 0 .027-.06c0-.015.008-.026.016-.026s.015-.012.015-.032a.07.07 0 0 1 .024-.047.07.07 0 0 0 .023-.046c0-.028.024-.098.063-.188.011-.027.027-.062.035-.078.035-.09.07-.168.105-.238.02-.04.04-.09.04-.106 0-.02.003-.047.011-.062a2.64 2.64 0 0 0 .14-.309.867.867 0 0 1 .075-.191c.023-.047.055-.118.066-.16l.067-.157a.38.38 0 0 0 .039-.113c0-.02.008-.031.016-.031.007 0 .015-.012.015-.028 0-.015.02-.058.04-.101a.983.983 0 0 0 .066-.16c.02-.051.046-.118.066-.157a.307.307 0 0 0 .035-.09c0-.015.008-.027.02-.027.008 0 .015-.011.015-.027 0-.04.051-.18.067-.18.008 0 .011-.015.011-.031s.012-.05.024-.074a1.4 1.4 0 0 0 .105-.254c0-.012.008-.028.016-.031a.058.058 0 0 0 .016-.036.89.89 0 0 1 .062-.16.916.916 0 0 0 .066-.16c0-.012.008-.023.016-.031.008-.004.016-.02.016-.035 0-.016.02-.063.039-.11.023-.043.039-.082.043-.09 0-.007.015-.05.039-.093a.55.55 0 0 0 .039-.114c0-.015.012-.039.023-.05.016-.012.024-.04.024-.055 0-.02.008-.04.015-.043a.047.047 0 0 0 .02-.035c0-.012.027-.086.062-.156a.89.89 0 0 0 .063-.16c0-.024.008-.044.047-.118.012-.023.015-.043.012-.047a.535.535 0 0 0-.215-.007m7.28-.004c-.015.007-.019.05-.019.152v.145l.098-.004c.066-.004.102.004.106.015.003.008.015.02.027.02.047 0 .168.148.168.21 0 .02.012.048.023.06.047.038.059.21.063.855.004.719.027.918.125 1.117a.492.492 0 0 1 .031.082.27.27 0 0 0 .04.066c.023.028.038.055.038.063s.047.062.106.117c.07.07.101.113.101.14 0 .044-.066.122-.101.122-.012 0-.032.023-.051.055-.016.03-.035.054-.043.054-.004 0-.012.012-.012.024 0 .015-.004.023-.012.023-.007 0-.02.02-.027.043-.004.02-.016.04-.023.04a.017.017 0 0 0-.016.015c0 .011-.02.054-.039.101a.88.88 0 0 0-.055.172l-.039.176c-.011.059-.02.32-.023.77-.004.43-.012.699-.02.714-.011.02-.015.051-.02.07 0 .02-.007.051-.023.067a.155.155 0 0 0-.023.063c0 .105-.149.222-.317.242l-.082.011v.258l.22-.008c.327-.007.5-.117.542-.351a.378.378 0 0 1 .031-.094.402.402 0 0 0 .02-.117.267.267 0 0 1 .02-.098c.019-.02.019-.11 0-.129-.036-.035.003-1.324.042-1.55a.94.94 0 0 1 .07-.235c.009-.011.024-.047.04-.074a.54.54 0 0 1 .226-.21c.094-.048.106-.067.098-.204l-.004-.094-.062-.015c-.114-.032-.317-.258-.317-.356a.26.26 0 0 0-.02-.074c-.03-.067-.042-.156-.054-.402a1.117 1.117 0 0 0-.02-.223c-.023-.024-.02-1.012 0-1.027.02-.012.02-.09 0-.141a.558.558 0 0 1-.02-.11c-.007-.039-.015-.085-.026-.105a.205.205 0 0 1-.016-.066c0-.082-.191-.336-.25-.336a.246.246 0 0 1-.066-.024 1.461 1.461 0 0 0-.434-.015" fill="#3665ef"/><path d="m7.145 6.379-.168.047c-.25.074-.59.312-.73.52-.017.019-.044.05-.056.066a3.29 3.29 0 0 0-.207.398c-.015.047-.066.25-.097.402-.059.293-.012.786.11 1.188.019.063.163.332.21.39.027.032.07.087.102.122.168.207.394.355.707.453.23.07.742.066.98-.008.383-.125.703-.457.84-.879.07-.207.082-.258.082-.332l.004-.066h-.43l-.031.129c-.016.07-.035.14-.043.16-.18.437-.5.668-.922.672a.906.906 0 0 1-.434-.082c-.98-.403-1.019-2.246-.058-2.711a.92.92 0 0 1 .43-.121c.464-.04.847.234 1 .707.043.14.035.132.254.132.23 0 .234 0 .207-.12-.114-.567-.395-.883-.918-1.028a1.919 1.919 0 0 1-.153-.043c-.117-.031-.566-.031-.68.004m3.43.02c-.699.101-1.066.468-1.031 1.042.02.356.234.614.617.743.047.015.102.03.121.039.063.023.192.062.27.078.847.183 1.094.293 1.203.543.113.254-.027.554-.324.699a.773.773 0 0 1-.137.059c-.012 0-.031.003-.04.011-.112.102-.694.059-.956-.07a.818.818 0 0 1-.426-.555c-.039-.199-.012-.18-.254-.183-.207-.004-.207-.004-.219.03-.007.044.04.29.082.395.012.043.032.09.036.106.074.242.367.496.699.61.305.1.848.12 1.12.038.028-.007.087-.027.138-.043.754-.218 1.011-1.07.476-1.59-.07-.07-.094-.085-.285-.187a2.247 2.247 0 0 0-.465-.148 1.604 1.604 0 0 1-.16-.04 1.346 1.346 0 0 0-.168-.038 12.75 12.75 0 0 1-.371-.094c-.21-.067-.422-.215-.484-.348-.121-.25.03-.57.32-.672l.105-.039c.137-.058.54-.062.688-.004.312.125.476.297.52.551.035.2.011.18.242.184l.207.004.015-.04c.032-.062-.031-.335-.11-.488a1.114 1.114 0 0 0-.66-.535l-.152-.043a3.482 3.482 0 0 0-.617-.016" fill="#000"/></g></svg>