<svg id="svg" version="1.1" xmlns="http://www.w3.org/2000/svg" xmlns:xlink="http://www.w3.org/1999/xlink" width="400" height="400" viewBox="0, 0, 400,400"><g id="svgg"><path id="path0" d="M187.600 4.000 C 187.600 4.248,185.407 4.400,181.820 4.400 C 177.218 4.400,175.974 4.517,175.719 4.973 C 175.482 5.396,174.244 5.598,170.999 5.744 C 165.141 6.007,162.787 6.368,162.528 7.043 C 162.379 7.432,161.603 7.600,159.957 7.600 C 158.652 7.600,157.600 7.779,157.600 8.000 C 157.600 8.220,156.700 8.400,155.600 8.400 C 154.089 8.400,153.600 8.547,153.600 9.000 C 153.600 9.453,153.111 9.600,151.600 9.600 C 150.500 9.600,149.600 9.780,149.600 10.000 C 149.600 10.220,148.893 10.400,148.029 10.400 C 147.164 10.400,146.187 10.670,145.857 11.000 C 145.527 11.330,144.614 11.600,143.829 11.600 C 143.043 11.600,142.400 11.780,142.400 12.000 C 142.400 12.220,141.770 12.400,141.000 12.400 C 140.022 12.400,139.600 12.581,139.600 13.000 C 139.600 13.433,139.156 13.600,138.000 13.600 C 137.120 13.600,136.400 13.780,136.400 14.000 C 136.400 14.220,135.770 14.400,135.000 14.400 C 134.022 14.400,133.600 14.581,133.600 15.000 C 133.600 15.433,133.156 15.600,132.000 15.600 C 131.120 15.600,130.400 15.780,130.400 16.000 C 130.400 16.220,129.854 16.400,129.187 16.400 C 128.479 16.400,127.879 16.649,127.745 17.000 C 127.618 17.330,127.094 17.600,126.581 17.600 C 126.067 17.600,125.536 17.780,125.400 18.000 C 125.264 18.220,124.618 18.400,123.964 18.400 C 123.276 18.400,122.678 18.653,122.545 19.000 C 122.418 19.330,121.884 19.600,121.357 19.600 C 120.831 19.600,120.400 19.780,120.400 20.000 C 120.400 20.220,119.950 20.400,119.400 20.400 C 118.778 20.400,118.400 20.627,118.400 21.000 C 118.400 21.348,118.037 21.600,117.534 21.600 C 116.482 21.600,113.600 22.828,113.600 23.277 C 113.600 23.455,113.390 23.600,113.134 23.600 C 112.388 23.600,109.600 24.923,109.600 25.277 C 109.600 25.455,109.366 25.600,109.080 25.600 C 108.161 25.600,106.406 26.584,106.403 27.100 C 106.401 27.375,105.950 27.600,105.400 27.600 C 104.850 27.600,104.400 27.780,104.400 28.000 C 104.400 28.220,104.034 28.400,103.587 28.400 C 103.141 28.400,102.671 28.670,102.545 29.000 C 102.418 29.330,102.036 29.600,101.695 29.600 C 101.354 29.600,100.486 30.050,99.764 30.600 C 99.043 31.150,98.261 31.600,98.027 31.600 C 97.792 31.600,97.600 31.760,97.600 31.957 C 97.600 32.153,97.150 32.426,96.600 32.564 C 96.050 32.702,95.600 32.992,95.600 33.208 C 95.600 33.423,95.330 33.600,95.000 33.600 C 94.670 33.600,94.400 33.780,94.400 34.000 C 94.400 34.220,94.173 34.400,93.896 34.400 C 93.619 34.400,92.907 34.850,92.313 35.400 C 91.720 35.950,90.951 36.400,90.605 36.400 C 90.258 36.400,89.880 36.647,89.764 36.950 C 89.648 37.252,88.934 37.833,88.177 38.241 C 87.419 38.648,86.800 39.121,86.800 39.291 C 86.800 39.461,86.530 39.600,86.200 39.600 C 85.870 39.600,85.600 39.780,85.600 40.000 C 85.600 40.220,85.330 40.400,85.000 40.400 C 84.670 40.400,84.400 40.670,84.400 41.000 C 84.400 41.330,84.085 41.606,83.700 41.613 C 82.835 41.628,81.600 42.529,81.600 43.144 C 81.600 43.395,81.330 43.600,81.000 43.600 C 80.670 43.600,80.400 43.780,80.400 44.000 C 80.400 44.220,80.173 44.400,79.896 44.400 C 79.619 44.400,78.907 44.850,78.313 45.400 C 77.720 45.950,77.047 46.400,76.817 46.400 C 76.588 46.400,76.400 46.649,76.400 46.954 C 76.400 47.259,75.770 47.808,75.000 48.173 C 74.230 48.539,73.600 49.009,73.600 49.219 C 73.600 49.428,73.407 49.600,73.171 49.600 C 72.618 49.600,71.600 50.618,71.600 51.171 C 71.600 51.407,71.407 51.600,71.171 51.600 C 70.618 51.600,69.600 52.618,69.600 53.171 C 69.600 53.407,69.407 53.600,69.171 53.600 C 68.618 53.600,67.600 54.618,67.600 55.171 C 67.600 55.407,67.265 55.600,66.856 55.600 C 66.447 55.600,65.774 56.050,65.361 56.600 C 64.948 57.150,64.457 57.600,64.271 57.600 C 63.832 57.600,59.600 61.998,59.600 62.454 C 59.600 62.644,59.375 62.755,59.100 62.700 C 58.825 62.645,58.645 62.825,58.700 63.100 C 58.755 63.375,58.593 63.600,58.341 63.600 C 57.638 63.600,53.613 68.106,53.606 68.900 C 53.603 69.285,53.407 69.600,53.171 69.600 C 52.618 69.600,51.600 70.618,51.600 71.171 C 51.600 71.407,51.407 71.600,51.171 71.600 C 50.711 71.600,49.600 72.583,49.600 72.991 C 49.600 73.127,49.150 73.655,48.600 74.165 C 48.050 74.675,47.600 75.386,47.600 75.746 C 47.600 76.106,47.330 76.400,47.000 76.400 C 46.670 76.400,46.400 76.627,46.400 76.905 C 46.400 77.183,45.950 77.748,45.400 78.161 C 44.850 78.574,44.400 79.247,44.400 79.656 C 44.400 80.065,44.220 80.400,44.000 80.400 C 43.780 80.400,43.600 80.670,43.600 81.000 C 43.600 81.330,43.407 81.600,43.171 81.600 C 42.529 81.600,41.600 82.655,41.600 83.384 C 41.600 83.737,41.330 84.129,41.000 84.255 C 40.670 84.382,40.400 84.736,40.400 85.043 C 40.400 85.349,40.220 85.600,40.000 85.600 C 39.780 85.600,39.600 85.793,39.600 86.029 C 39.600 86.264,39.375 86.708,39.100 87.015 C 37.931 88.318,37.600 88.787,37.600 89.140 C 37.600 89.346,37.330 89.618,37.000 89.745 C 36.670 89.871,36.400 90.341,36.400 90.787 C 36.400 91.234,36.220 91.600,36.000 91.600 C 35.780 91.600,35.600 91.793,35.600 92.029 C 35.600 92.264,35.375 92.708,35.100 93.015 C 33.823 94.438,33.600 94.821,33.600 95.583 C 33.600 96.043,33.337 96.400,33.000 96.400 C 32.670 96.400,32.400 96.670,32.400 97.000 C 32.400 97.330,32.220 97.600,32.000 97.600 C 31.780 97.600,31.600 98.050,31.600 98.600 C 31.600 99.222,31.373 99.600,31.000 99.600 C 30.627 99.600,30.400 99.978,30.400 100.600 C 30.400 101.150,30.220 101.600,30.000 101.600 C 29.780 101.600,29.600 101.870,29.600 102.200 C 29.600 102.530,29.423 102.800,29.208 102.800 C 28.992 102.800,28.703 103.249,28.565 103.797 C 28.427 104.346,28.154 104.695,27.957 104.574 C 27.761 104.452,27.600 104.794,27.600 105.334 C 27.600 105.873,27.330 106.418,27.000 106.545 C 26.670 106.671,26.400 107.141,26.400 107.587 C 26.400 108.034,26.220 108.400,26.000 108.400 C 25.780 108.400,25.600 108.850,25.600 109.400 C 25.600 110.022,25.373 110.400,25.000 110.400 C 24.627 110.400,24.400 110.778,24.400 111.400 C 24.400 111.950,24.220 112.400,24.000 112.400 C 23.780 112.400,23.600 112.850,23.600 113.400 C 23.600 114.022,23.373 114.400,23.000 114.400 C 22.627 114.400,22.400 114.778,22.400 115.400 C 22.400 115.950,22.220 116.400,22.000 116.400 C 21.780 116.400,21.600 116.831,21.600 117.357 C 21.600 117.884,21.330 118.418,21.000 118.545 C 20.670 118.671,20.400 119.130,20.400 119.564 C 20.400 119.998,20.220 120.464,20.000 120.600 C 19.780 120.736,19.600 121.467,19.600 122.224 C 19.600 123.180,19.417 123.600,19.000 123.600 C 18.627 123.600,18.400 123.978,18.400 124.600 C 18.400 125.150,18.220 125.600,18.000 125.600 C 17.780 125.600,17.600 126.230,17.600 127.000 C 17.600 127.978,17.419 128.400,17.000 128.400 C 16.627 128.400,16.400 128.778,16.400 129.400 C 16.400 129.950,16.220 130.400,16.000 130.400 C 15.780 130.400,15.600 131.101,15.600 131.957 C 15.600 132.972,15.391 133.595,15.000 133.745 C 14.649 133.879,14.400 134.479,14.400 135.187 C 14.400 135.854,14.220 136.400,14.000 136.400 C 13.780 136.400,13.600 137.120,13.600 138.000 C 13.600 139.156,13.433 139.600,13.000 139.600 C 12.581 139.600,12.400 140.022,12.400 141.000 C 12.400 141.770,12.220 142.400,12.000 142.400 C 11.780 142.400,11.600 143.043,11.600 143.829 C 11.600 144.614,11.330 145.527,11.000 145.857 C 10.670 146.187,10.400 147.164,10.400 148.029 C 10.400 148.893,10.220 149.600,10.000 149.600 C 9.780 149.600,9.600 150.500,9.600 151.600 C 9.600 153.111,9.453 153.600,9.000 153.600 C 8.547 153.600,8.400 154.089,8.400 155.600 C 8.400 156.700,8.220 157.600,8.000 157.600 C 7.779 157.600,7.600 158.652,7.600 159.957 C 7.600 161.684,7.439 162.376,7.000 162.545 C 6.545 162.719,6.400 163.456,6.400 165.587 C 6.400 167.196,6.229 168.400,6.000 168.400 C 5.763 168.400,5.600 169.852,5.600 171.957 C 5.600 174.750,5.471 175.564,5.000 175.745 C 4.513 175.932,4.400 176.879,4.400 180.787 C 4.400 183.729,4.245 185.600,4.000 185.600 C 3.741 185.600,3.600 190.667,3.600 200.000 C 3.600 209.333,3.741 214.400,4.000 214.400 C 4.245 214.400,4.400 216.271,4.400 219.213 C 4.400 223.121,4.513 224.068,5.000 224.255 C 5.471 224.436,5.600 225.250,5.600 228.043 C 5.600 230.148,5.763 231.600,6.000 231.600 C 6.229 231.600,6.400 232.804,6.400 234.413 C 6.400 236.544,6.545 237.281,7.000 237.455 C 7.439 237.624,7.600 238.316,7.600 240.043 C 7.600 241.348,7.779 242.400,8.000 242.400 C 8.220 242.400,8.400 243.281,8.400 244.357 C 8.400 245.728,8.580 246.383,9.000 246.545 C 9.411 246.702,9.600 247.345,9.600 248.587 C 9.600 249.584,9.780 250.400,10.000 250.400 C 10.220 250.400,10.400 251.216,10.400 252.213 C 10.400 253.455,10.589 254.098,11.000 254.255 C 11.391 254.405,11.600 255.028,11.600 256.043 C 11.600 256.899,11.780 257.600,12.000 257.600 C 12.220 257.600,12.400 258.230,12.400 259.000 C 12.400 259.978,12.581 260.400,13.000 260.400 C 13.433 260.400,13.600 260.844,13.600 262.000 C 13.600 262.880,13.780 263.600,14.000 263.600 C 14.220 263.600,14.400 264.230,14.400 265.000 C 14.400 265.978,14.581 266.400,15.000 266.400 C 15.433 266.400,15.600 266.844,15.600 268.000 C 15.600 268.880,15.780 269.600,16.000 269.600 C 16.220 269.600,16.400 270.037,16.400 270.571 C 16.400 271.106,16.670 271.813,17.000 272.143 C 17.330 272.473,17.600 273.116,17.600 273.571 C 17.600 274.027,17.780 274.400,18.000 274.400 C 18.220 274.400,18.400 274.850,18.400 275.400 C 18.400 276.022,18.627 276.400,19.000 276.400 C 19.417 276.400,19.600 276.820,19.600 277.776 C 19.600 278.533,19.780 279.264,20.000 279.400 C 20.220 279.536,20.400 280.002,20.400 280.436 C 20.400 280.870,20.670 281.329,21.000 281.455 C 21.330 281.582,21.600 282.116,21.600 282.643 C 21.600 283.169,21.780 283.600,22.000 283.600 C 22.220 283.600,22.400 284.050,22.400 284.600 C 22.400 285.222,22.627 285.600,23.000 285.600 C 23.373 285.600,23.600 285.978,23.600 286.600 C 23.600 287.150,23.780 287.600,24.000 287.600 C 24.220 287.600,24.400 288.050,24.400 288.600 C 24.400 289.222,24.627 289.600,25.000 289.600 C 25.373 289.600,25.600 289.978,25.600 290.600 C 25.600 291.150,25.780 291.600,26.000 291.600 C 26.220 291.600,26.400 292.050,26.400 292.600 C 26.400 293.222,26.627 293.600,27.000 293.600 C 27.373 293.600,27.600 293.978,27.600 294.600 C 27.600 295.150,27.780 295.600,28.000 295.600 C 28.220 295.600,28.400 295.935,28.400 296.344 C 28.400 296.753,28.850 297.426,29.400 297.839 C 29.951 298.253,30.400 298.996,30.400 299.495 C 30.400 300.033,30.643 300.400,31.000 300.400 C 31.373 300.400,31.600 300.778,31.600 301.400 C 31.600 301.950,31.780 302.400,32.000 302.400 C 32.220 302.400,32.400 302.670,32.400 303.000 C 32.400 303.330,32.670 303.600,33.000 303.600 C 33.337 303.600,33.600 303.957,33.600 304.417 C 33.600 305.179,33.823 305.562,35.100 306.985 C 35.375 307.292,35.600 307.736,35.600 307.971 C 35.600 308.207,35.760 308.400,35.957 308.400 C 36.153 308.400,36.426 308.850,36.564 309.400 C 36.702 309.950,36.992 310.400,37.208 310.400 C 37.423 310.400,37.600 310.627,37.600 310.905 C 37.600 311.183,38.050 311.748,38.600 312.161 C 39.150 312.574,39.600 313.247,39.600 313.656 C 39.600 314.065,39.780 314.400,40.000 314.400 C 40.220 314.400,40.400 314.670,40.400 315.000 C 40.400 315.330,40.670 315.600,41.000 315.600 C 41.330 315.600,41.606 315.915,41.613 316.300 C 41.628 317.165,42.529 318.400,43.144 318.400 C 43.395 318.400,43.600 318.593,43.600 318.829 C 43.600 319.064,43.825 319.508,44.100 319.815 C 45.287 321.138,45.600 321.591,45.600 321.983 C 45.600 322.212,45.780 322.400,46.000 322.400 C 46.220 322.400,46.400 322.670,46.400 323.000 C 46.400 323.330,46.593 323.600,46.829 323.600 C 47.439 323.600,48.247 324.489,48.574 325.519 C 48.728 326.003,49.022 326.400,49.227 326.400 C 49.432 326.400,49.600 326.593,49.600 326.829 C 49.600 327.382,50.618 328.400,51.171 328.400 C 51.407 328.400,51.600 328.593,51.600 328.829 C 51.600 329.382,52.618 330.400,53.171 330.400 C 53.407 330.400,53.600 330.627,53.600 330.905 C 53.600 331.183,54.050 331.748,54.600 332.161 C 55.150 332.574,55.605 333.112,55.612 333.356 C 55.627 333.942,57.874 336.400,58.394 336.400 C 58.617 336.400,58.755 336.547,58.700 336.726 C 58.494 337.398,68.160 346.384,69.100 346.394 C 69.375 346.397,69.600 346.593,69.600 346.829 C 69.600 347.382,70.618 348.400,71.171 348.400 C 71.407 348.400,71.600 348.593,71.600 348.829 C 71.600 349.266,72.575 350.400,72.951 350.400 C 73.065 350.400,73.644 350.850,74.238 351.400 C 74.831 351.950,75.561 352.400,75.858 352.400 C 76.156 352.400,76.400 352.670,76.400 353.000 C 76.400 353.330,76.627 353.600,76.905 353.600 C 77.183 353.600,77.748 354.050,78.161 354.600 C 78.574 355.150,79.247 355.600,79.656 355.600 C 80.065 355.600,80.400 355.780,80.400 356.000 C 80.400 356.220,80.670 356.400,81.000 356.400 C 81.330 356.400,81.600 356.670,81.600 357.000 C 81.600 357.330,81.881 357.600,82.224 357.600 C 82.567 357.600,82.736 357.780,82.600 358.000 C 82.460 358.227,82.796 358.400,83.376 358.400 C 84.020 358.400,84.400 358.623,84.400 359.000 C 84.400 359.330,84.670 359.600,85.000 359.600 C 85.330 359.600,85.600 359.780,85.600 360.000 C 85.600 360.220,85.793 360.400,86.029 360.400 C 86.264 360.400,86.708 360.625,87.015 360.900 C 88.318 362.069,88.787 362.400,89.140 362.400 C 89.346 362.400,89.618 362.670,89.745 363.000 C 89.871 363.330,90.341 363.600,90.787 363.600 C 91.234 363.600,91.600 363.780,91.600 364.000 C 91.600 364.220,91.793 364.400,92.029 364.400 C 92.264 364.400,92.708 364.625,93.015 364.900 C 94.405 366.147,94.807 366.400,95.396 366.400 C 95.742 366.400,96.129 366.670,96.255 367.000 C 96.382 367.330,96.736 367.600,97.043 367.600 C 97.349 367.600,97.600 367.780,97.600 368.000 C 97.600 368.220,98.050 368.400,98.600 368.400 C 99.150 368.400,99.602 368.625,99.604 368.900 C 99.606 369.175,100.281 369.723,101.104 370.117 C 103.707 371.366,104.400 371.781,104.400 372.095 C 104.400 372.263,104.831 372.400,105.357 372.400 C 105.884 372.400,106.418 372.670,106.545 373.000 C 106.671 373.330,107.130 373.600,107.564 373.600 C 107.998 373.600,108.464 373.780,108.600 374.000 C 108.736 374.220,109.177 374.400,109.581 374.400 C 109.984 374.400,110.418 374.670,110.545 375.000 C 110.671 375.330,111.141 375.600,111.587 375.600 C 112.034 375.600,112.400 375.780,112.400 376.000 C 112.400 376.220,112.850 376.400,113.400 376.400 C 114.022 376.400,114.400 376.627,114.400 377.000 C 114.400 377.369,114.775 377.600,115.376 377.600 C 115.913 377.600,116.464 377.780,116.600 378.000 C 116.736 378.220,117.177 378.400,117.581 378.400 C 117.984 378.400,118.418 378.670,118.545 379.000 C 118.671 379.330,119.241 379.600,119.811 379.600 C 120.400 379.600,120.741 379.773,120.600 380.000 C 120.461 380.225,120.780 380.400,121.327 380.400 C 121.863 380.400,122.526 380.670,122.800 381.000 C 123.074 381.330,123.715 381.600,124.225 381.600 C 124.735 381.600,125.264 381.780,125.400 382.000 C 125.536 382.220,126.067 382.400,126.581 382.400 C 127.094 382.400,127.618 382.670,127.745 383.000 C 127.878 383.347,128.476 383.600,129.164 383.600 C 129.818 383.600,130.464 383.780,130.600 384.000 C 130.736 384.220,131.209 384.400,131.652 384.400 C 132.095 384.400,132.727 384.670,133.057 385.000 C 133.387 385.330,134.084 385.600,134.605 385.600 C 135.126 385.600,135.664 385.780,135.800 386.000 C 135.936 386.220,136.589 386.400,137.252 386.400 C 137.915 386.400,138.727 386.670,139.057 387.000 C 139.387 387.330,140.084 387.600,140.605 387.600 C 141.126 387.600,141.664 387.780,141.800 388.000 C 141.936 388.220,142.847 388.400,143.824 388.400 C 145.079 388.400,145.600 388.564,145.600 388.960 C 145.600 389.317,146.216 389.600,147.300 389.741 C 151.033 390.228,152.214 390.524,152.520 391.050 C 152.735 391.419,153.623 391.600,155.220 391.600 C 156.540 391.600,157.600 391.778,157.600 392.000 C 157.600 392.221,158.652 392.400,159.957 392.400 C 161.684 392.400,162.376 392.561,162.545 393.000 C 162.719 393.455,163.456 393.600,165.587 393.600 C 167.196 393.600,168.400 393.771,168.400 394.000 C 168.400 394.237,169.852 394.400,171.957 394.400 C 174.750 394.400,175.564 394.529,175.745 395.000 C 175.935 395.495,176.990 395.600,181.787 395.600 C 185.396 395.600,187.600 395.752,187.600 396.000 C 187.600 396.258,192.000 396.400,200.000 396.400 C 208.000 396.400,212.400 396.258,212.400 396.000 C 212.400 395.752,214.604 395.600,218.213 395.600 C 223.010 395.600,224.065 395.495,224.255 395.000 C 224.436 394.529,225.250 394.400,228.043 394.400 C 230.148 394.400,231.600 394.237,231.600 394.000 C 231.600 393.771,232.804 393.600,234.413 393.600 C 236.544 393.600,237.281 393.455,237.455 393.000 C 237.624 392.561,238.316 392.400,240.043 392.400 C 241.348 392.400,242.400 392.221,242.400 392.000 C 242.400 391.778,243.460 391.600,244.780 391.600 C 246.377 391.600,247.265 391.419,247.480 391.050 C 247.786 390.524,248.967 390.228,252.700 389.741 C 253.784 389.600,254.400 389.317,254.400 388.960 C 254.400 388.564,254.921 388.400,256.176 388.400 C 257.153 388.400,258.064 388.220,258.200 388.000 C 258.336 387.780,258.874 387.600,259.395 387.600 C 259.916 387.600,260.613 387.330,260.943 387.000 C 261.273 386.670,262.085 386.400,262.748 386.400 C 263.411 386.400,264.064 386.220,264.200 386.000 C 264.336 385.780,264.874 385.600,265.395 385.600 C 265.916 385.600,266.613 385.330,266.943 385.000 C 267.273 384.670,268.006 384.400,268.571 384.400 C 269.137 384.400,269.600 384.220,269.600 384.000 C 269.600 383.780,270.146 383.600,270.813 383.600 C 271.521 383.600,272.121 383.351,272.255 383.000 C 272.382 382.670,272.906 382.400,273.419 382.400 C 273.933 382.400,274.464 382.220,274.600 382.000 C 274.736 381.780,275.265 381.600,275.775 381.600 C 276.285 381.600,276.926 381.330,277.200 381.000 C 277.474 380.670,278.126 380.400,278.649 380.400 C 279.172 380.400,279.600 380.220,279.600 380.000 C 279.600 379.780,279.966 379.600,280.413 379.600 C 280.859 379.600,281.329 379.330,281.455 379.000 C 281.582 378.670,282.116 378.400,282.643 378.400 C 283.169 378.400,283.600 378.220,283.600 378.000 C 283.600 377.780,284.050 377.600,284.600 377.600 C 285.222 377.600,285.600 377.373,285.600 377.000 C 285.600 376.627,285.978 376.400,286.600 376.400 C 287.150 376.400,287.600 376.220,287.600 376.000 C 287.600 375.780,287.966 375.600,288.413 375.600 C 288.859 375.600,289.329 375.330,289.455 375.000 C 289.582 374.670,290.116 374.400,290.643 374.400 C 291.169 374.400,291.600 374.220,291.600 374.000 C 291.600 373.780,291.966 373.600,292.413 373.600 C 292.859 373.600,293.329 373.330,293.455 373.000 C 293.582 372.670,294.116 372.400,294.643 372.400 C 295.169 372.400,295.600 372.220,295.600 372.000 C 295.600 371.780,295.792 371.600,296.027 371.600 C 296.261 371.600,297.043 371.150,297.764 370.600 C 298.486 370.050,299.374 369.600,299.738 369.600 C 300.102 369.600,300.400 369.330,300.400 369.000 C 300.400 368.627,300.778 368.400,301.400 368.400 C 301.950 368.400,302.400 368.220,302.400 368.000 C 302.400 367.780,302.670 367.600,303.000 367.600 C 303.330 367.600,303.600 367.330,303.600 367.000 C 303.600 366.660,303.959 366.400,304.429 366.400 C 304.884 366.400,305.508 366.175,305.815 365.900 C 307.138 364.713,307.591 364.400,307.983 364.400 C 308.212 364.400,308.400 364.220,308.400 364.000 C 308.400 363.780,308.766 363.600,309.213 363.600 C 309.659 363.600,310.129 363.330,310.255 363.000 C 310.382 362.670,310.659 362.400,310.871 362.400 C 311.084 362.400,311.508 362.175,311.815 361.900 C 313.138 360.713,313.591 360.400,313.983 360.400 C 314.212 360.400,314.400 360.220,314.400 360.000 C 314.400 359.780,314.670 359.600,315.000 359.600 C 315.330 359.600,315.600 359.330,315.600 359.000 C 315.600 358.660,315.959 358.400,316.429 358.400 C 317.314 358.400,318.400 357.534,318.400 356.829 C 318.400 356.593,318.670 356.400,319.000 356.400 C 319.330 356.400,319.600 356.220,319.600 356.000 C 319.600 355.780,319.935 355.600,320.344 355.600 C 320.753 355.600,321.426 355.150,321.839 354.600 C 322.252 354.050,322.817 353.600,323.095 353.600 C 323.373 353.600,323.600 353.330,323.600 353.000 C 323.600 352.670,323.837 352.400,324.127 352.400 C 324.417 352.400,325.362 351.770,326.227 351.000 C 327.092 350.230,327.935 349.600,328.100 349.600 C 328.265 349.600,328.400 349.330,328.400 349.000 C 328.400 348.670,328.593 348.400,328.829 348.400 C 329.382 348.400,330.400 347.382,330.400 346.829 C 330.400 346.593,330.625 346.397,330.900 346.394 C 331.739 346.385,342.400 336.570,342.400 335.808 C 342.400 335.662,342.625 335.292,342.900 334.985 C 344.087 333.662,344.400 333.209,344.400 332.817 C 344.400 332.588,344.593 332.400,344.829 332.400 C 345.382 332.400,346.400 331.382,346.400 330.829 C 346.400 330.593,346.593 330.400,346.829 330.400 C 347.382 330.400,348.400 329.382,348.400 328.829 C 348.400 328.593,348.670 328.400,349.000 328.400 C 349.330 328.400,349.600 328.265,349.600 328.100 C 349.601 327.935,350.051 327.277,350.600 326.638 C 351.150 325.999,351.600 325.311,351.600 325.109 C 351.600 324.606,352.647 323.600,353.171 323.600 C 353.407 323.600,353.600 323.330,353.600 323.000 C 353.600 322.670,353.780 322.400,354.000 322.400 C 354.220 322.400,354.400 322.207,354.400 321.971 C 354.400 321.736,354.625 321.292,354.900 320.985 C 356.087 319.662,356.400 319.209,356.400 318.817 C 356.400 318.588,356.605 318.400,356.856 318.400 C 357.471 318.400,358.372 317.165,358.387 316.300 C 358.394 315.915,358.670 315.600,359.000 315.600 C 359.330 315.600,359.600 315.330,359.600 315.000 C 359.600 314.670,359.780 314.400,360.000 314.400 C 360.220 314.400,360.400 313.950,360.400 313.400 C 360.400 312.850,360.593 312.400,360.829 312.400 C 361.382 312.400,362.400 311.382,362.400 310.829 C 362.400 310.593,362.577 310.400,362.792 310.400 C 363.008 310.400,363.298 309.950,363.436 309.400 C 363.574 308.850,363.847 308.400,364.043 308.400 C 364.240 308.400,364.400 308.173,364.400 307.896 C 364.400 307.619,364.850 306.907,365.400 306.313 C 365.950 305.720,366.400 304.867,366.400 304.417 C 366.400 303.957,366.662 303.600,367.000 303.600 C 367.330 303.600,367.600 303.330,367.600 303.000 C 367.600 302.670,367.780 302.400,368.000 302.400 C 368.220 302.400,368.400 301.950,368.400 301.400 C 368.400 300.778,368.627 300.400,369.000 300.400 C 369.373 300.400,369.600 300.022,369.600 299.400 C 369.600 298.850,369.780 298.400,370.000 298.400 C 370.220 298.400,370.400 298.207,370.400 297.971 C 370.400 297.736,370.625 297.292,370.900 296.985 C 372.177 295.562,372.400 295.179,372.400 294.417 C 372.400 293.957,372.663 293.600,373.000 293.600 C 373.373 293.600,373.600 293.222,373.600 292.600 C 373.600 292.050,373.780 291.600,374.000 291.600 C 374.220 291.600,374.400 291.169,374.400 290.643 C 374.400 290.116,374.670 289.582,375.000 289.455 C 375.330 289.329,375.600 288.859,375.600 288.413 C 375.600 287.966,375.780 287.600,376.000 287.600 C 376.220 287.600,376.400 287.150,376.400 286.600 C 376.400 285.978,376.627 285.600,377.000 285.600 C 377.373 285.600,377.600 285.222,377.600 284.600 C 377.600 284.050,377.780 283.600,378.000 283.600 C 378.220 283.600,378.400 283.169,378.400 282.643 C 378.400 282.116,378.670 281.582,379.000 281.455 C 379.330 281.329,379.600 280.870,379.600 280.436 C 379.600 280.002,379.780 279.536,380.000 279.400 C 380.220 279.264,380.400 278.533,380.400 277.776 C 380.400 276.820,380.583 276.400,381.000 276.400 C 381.373 276.400,381.600 276.022,381.600 275.400 C 381.600 274.850,381.780 274.400,382.000 274.400 C 382.220 274.400,382.400 273.972,382.400 273.449 C 382.400 272.926,382.670 272.274,383.000 272.000 C 383.330 271.726,383.600 271.074,383.600 270.551 C 383.600 270.028,383.780 269.600,384.000 269.600 C 384.220 269.600,384.400 268.880,384.400 268.000 C 384.400 266.844,384.567 266.400,385.000 266.400 C 385.419 266.400,385.600 265.978,385.600 265.000 C 385.600 264.230,385.780 263.600,386.000 263.600 C 386.220 263.600,386.400 262.880,386.400 262.000 C 386.400 260.844,386.567 260.400,387.000 260.400 C 387.419 260.400,387.600 259.978,387.600 259.000 C 387.600 258.230,387.780 257.600,388.000 257.600 C 388.220 257.600,388.400 256.899,388.400 256.043 C 388.400 255.028,388.609 254.405,389.000 254.255 C 389.411 254.098,389.600 253.455,389.600 252.213 C 389.600 251.216,389.780 250.400,390.000 250.400 C 390.220 250.400,390.400 249.500,390.400 248.400 C 390.400 246.889,390.547 246.400,391.000 246.400 C 391.453 246.400,391.600 245.911,391.600 244.400 C 391.600 243.300,391.780 242.400,392.000 242.400 C 392.221 242.400,392.400 241.350,392.400 240.049 C 392.400 238.447,392.591 237.539,393.000 237.200 C 393.419 236.853,393.600 235.931,393.600 234.151 C 393.600 232.717,393.775 231.600,394.000 231.600 C 394.237 231.600,394.400 230.148,394.400 228.043 C 394.400 225.250,394.529 224.436,395.000 224.255 C 395.487 224.068,395.600 223.124,395.600 219.236 C 395.600 216.475,395.769 214.343,396.000 214.200 C 396.254 214.043,396.400 208.796,396.400 199.776 C 396.400 190.592,396.259 185.600,396.000 185.600 C 395.755 185.600,395.600 183.729,395.600 180.787 C 395.600 176.879,395.487 175.932,395.000 175.745 C 394.529 175.564,394.400 174.750,394.400 171.957 C 394.400 169.852,394.237 168.400,394.000 168.400 C 393.775 168.400,393.600 167.276,393.600 165.829 C 393.600 164.076,393.409 163.066,393.000 162.657 C 392.610 162.267,392.400 161.276,392.400 159.829 C 392.400 158.603,392.220 157.600,392.000 157.600 C 391.780 157.600,391.600 156.784,391.600 155.787 C 391.600 154.545,391.411 153.902,391.000 153.745 C 390.580 153.583,390.400 152.928,390.400 151.557 C 390.400 150.481,390.220 149.600,390.000 149.600 C 389.780 149.600,389.600 148.893,389.600 148.029 C 389.600 147.164,389.330 146.187,389.000 145.857 C 388.670 145.527,388.400 144.614,388.400 143.829 C 388.400 143.043,388.220 142.400,388.000 142.400 C 387.780 142.400,387.600 141.770,387.600 141.000 C 387.600 140.022,387.419 139.600,387.000 139.600 C 386.567 139.600,386.400 139.156,386.400 138.000 C 386.400 137.120,386.220 136.400,386.000 136.400 C 385.780 136.400,385.600 135.770,385.600 135.000 C 385.600 134.022,385.419 133.600,385.000 133.600 C 384.565 133.600,384.400 133.153,384.400 131.976 C 384.400 130.996,384.242 130.451,384.000 130.600 C 383.767 130.744,383.600 130.337,383.600 129.624 C 383.600 128.803,383.403 128.400,383.000 128.400 C 382.581 128.400,382.400 127.978,382.400 127.000 C 382.400 126.230,382.220 125.600,382.000 125.600 C 381.780 125.600,381.600 125.150,381.600 124.600 C 381.600 123.978,381.373 123.600,381.000 123.600 C 380.583 123.600,380.400 123.180,380.400 122.224 C 380.400 121.467,380.220 120.736,380.000 120.600 C 379.780 120.464,379.600 119.998,379.600 119.564 C 379.600 119.130,379.330 118.671,379.000 118.545 C 378.670 118.418,378.400 117.884,378.400 117.357 C 378.400 116.831,378.220 116.400,378.000 116.400 C 377.780 116.400,377.600 115.950,377.600 115.400 C 377.600 114.778,377.373 114.400,377.000 114.400 C 376.627 114.400,376.400 114.022,376.400 113.400 C 376.400 112.850,376.220 112.400,376.000 112.400 C 375.780 112.400,375.600 112.034,375.600 111.587 C 375.600 111.141,375.330 110.671,375.000 110.545 C 374.670 110.418,374.400 109.984,374.400 109.581 C 374.400 109.177,374.220 108.736,374.000 108.600 C 373.780 108.464,373.600 107.998,373.600 107.564 C 373.600 107.130,373.330 106.671,373.000 106.545 C 372.670 106.418,372.400 105.873,372.400 105.334 C 372.400 104.782,372.225 104.461,372.000 104.600 C 371.780 104.736,371.600 104.520,371.600 104.120 C 371.600 103.719,371.150 102.907,370.600 102.313 C 370.050 101.720,369.600 100.867,369.600 100.417 C 369.600 99.957,369.338 99.600,369.000 99.600 C 368.627 99.600,368.400 99.222,368.400 98.600 C 368.400 98.050,368.220 97.600,368.000 97.600 C 367.780 97.600,367.600 97.330,367.600 97.000 C 367.600 96.670,367.330 96.400,367.000 96.400 C 366.662 96.400,366.400 96.043,366.400 95.583 C 366.400 95.133,365.950 94.280,365.400 93.687 C 364.850 93.093,364.400 92.381,364.400 92.104 C 364.400 91.827,364.220 91.600,364.000 91.600 C 363.780 91.600,363.600 91.234,363.600 90.787 C 363.600 90.341,363.330 89.871,363.000 89.745 C 362.670 89.618,362.400 89.341,362.400 89.129 C 362.400 88.916,362.175 88.492,361.900 88.185 C 360.824 86.985,360.400 86.424,360.400 86.199 C 360.400 86.071,359.950 85.480,359.400 84.887 C 358.850 84.293,358.400 83.481,358.400 83.080 C 358.400 82.680,358.220 82.464,358.000 82.600 C 357.780 82.736,357.600 82.567,357.600 82.224 C 357.600 81.881,357.330 81.600,357.000 81.600 C 356.670 81.600,356.400 81.330,356.400 81.000 C 356.400 80.670,356.220 80.400,356.000 80.400 C 355.780 80.400,355.600 80.065,355.600 79.656 C 355.600 79.247,355.150 78.574,354.600 78.161 C 354.050 77.748,353.600 77.183,353.600 76.905 C 353.600 76.627,353.330 76.400,353.000 76.400 C 352.670 76.400,352.400 76.106,352.400 75.746 C 352.400 75.386,351.950 74.675,351.400 74.165 C 350.850 73.655,350.400 73.127,350.400 72.991 C 350.400 72.583,349.289 71.600,348.829 71.600 C 348.593 71.600,348.400 71.407,348.400 71.171 C 348.400 70.618,347.382 69.600,346.829 69.600 C 346.593 69.600,346.400 69.265,346.400 68.856 C 346.400 68.447,345.950 67.774,345.400 67.361 C 344.850 66.948,344.400 66.459,344.400 66.274 C 344.400 65.792,341.086 62.580,340.712 62.700 C 340.540 62.755,340.400 62.624,340.400 62.409 C 340.400 61.932,336.185 57.600,335.721 57.600 C 335.539 57.600,335.052 57.150,334.639 56.600 C 334.226 56.050,333.553 55.600,333.144 55.600 C 332.735 55.600,332.400 55.407,332.400 55.171 C 332.400 54.618,331.382 53.600,330.829 53.600 C 330.593 53.600,330.400 53.407,330.400 53.171 C 330.400 52.618,329.382 51.600,328.829 51.600 C 328.593 51.600,328.400 51.407,328.400 51.171 C 328.400 50.618,327.382 49.600,326.829 49.600 C 326.593 49.600,326.400 49.428,326.400 49.219 C 326.400 49.009,325.770 48.539,325.000 48.173 C 324.230 47.808,323.600 47.259,323.600 46.954 C 323.600 46.649,323.330 46.400,323.000 46.400 C 322.670 46.400,322.400 46.220,322.400 46.000 C 322.400 45.780,322.207 45.600,321.971 45.600 C 321.736 45.600,321.292 45.375,320.985 45.100 C 319.662 43.913,319.209 43.600,318.817 43.600 C 318.588 43.600,318.400 43.395,318.400 43.144 C 318.400 42.529,317.165 41.628,316.300 41.613 C 315.915 41.606,315.600 41.330,315.600 41.000 C 315.600 40.670,315.330 40.400,315.000 40.400 C 314.670 40.400,314.400 40.220,314.400 40.000 C 314.400 39.780,314.207 39.600,313.971 39.600 C 313.736 39.600,313.292 39.375,312.985 39.100 C 311.682 37.931,311.213 37.600,310.860 37.600 C 310.654 37.600,310.382 37.330,310.255 37.000 C 310.129 36.670,309.742 36.400,309.395 36.400 C 309.049 36.400,308.280 35.950,307.687 35.400 C 307.093 34.850,306.381 34.400,306.104 34.400 C 305.827 34.400,305.600 34.220,305.600 34.000 C 305.600 33.780,305.330 33.600,305.000 33.600 C 304.670 33.600,304.400 33.423,304.400 33.208 C 304.400 32.992,303.950 32.702,303.400 32.564 C 302.850 32.426,302.400 32.153,302.400 31.957 C 302.400 31.760,302.208 31.600,301.973 31.600 C 301.739 31.600,300.957 31.150,300.236 30.600 C 299.514 30.050,298.646 29.600,298.305 29.600 C 297.964 29.600,297.582 29.330,297.455 29.000 C 297.329 28.670,296.859 28.400,296.413 28.400 C 295.966 28.400,295.600 28.220,295.600 28.000 C 295.600 27.780,295.150 27.600,294.600 27.600 C 294.050 27.600,293.599 27.375,293.597 27.100 C 293.594 26.584,291.839 25.600,290.920 25.600 C 290.634 25.600,290.400 25.455,290.400 25.277 C 290.400 24.923,287.612 23.600,286.866 23.600 C 286.610 23.600,286.400 23.455,286.400 23.277 C 286.400 22.828,283.518 21.600,282.466 21.600 C 281.963 21.600,281.600 21.348,281.600 21.000 C 281.600 20.627,281.222 20.400,280.600 20.400 C 280.050 20.400,279.600 20.220,279.600 20.000 C 279.600 19.780,279.227 19.600,278.771 19.600 C 278.316 19.600,277.673 19.330,277.343 19.000 C 277.013 18.670,276.216 18.400,275.571 18.400 C 274.927 18.400,274.400 18.220,274.400 18.000 C 274.400 17.780,273.969 17.600,273.443 17.600 C 272.916 17.600,272.382 17.330,272.255 17.000 C 272.121 16.649,271.521 16.400,270.813 16.400 C 270.146 16.400,269.600 16.220,269.600 16.000 C 269.600 15.780,268.880 15.600,268.000 15.600 C 266.844 15.600,266.400 15.433,266.400 15.000 C 266.400 14.581,265.978 14.400,265.000 14.400 C 264.230 14.400,263.600 14.220,263.600 14.000 C 263.600 13.780,262.899 13.600,262.043 13.600 C 261.028 13.600,260.405 13.391,260.255 13.000 C 260.121 12.649,259.521 12.400,258.813 12.400 C 258.146 12.400,257.600 12.220,257.600 12.000 C 257.600 11.780,256.957 11.600,256.171 11.600 C 255.386 11.600,254.473 11.330,254.143 11.000 C 253.813 10.670,252.836 10.400,251.971 10.400 C 251.107 10.400,250.400 10.220,250.400 10.000 C 250.400 9.780,249.500 9.600,248.400 9.600 C 246.889 9.600,246.400 9.453,246.400 9.000 C 246.400 8.547,245.911 8.400,244.400 8.400 C 243.300 8.400,242.400 8.220,242.400 8.000 C 242.400 7.779,241.348 7.600,240.043 7.600 C 238.316 7.600,237.624 7.439,237.455 7.000 C 237.304 6.606,236.680 6.400,235.636 6.400 C 234.762 6.400,233.936 6.220,233.800 6.000 C 233.659 5.771,231.610 5.600,229.019 5.600 C 225.358 5.600,224.441 5.484,224.255 5.000 C 224.065 4.505,223.010 4.400,218.213 4.400 C 214.604 4.400,212.400 4.248,212.400 4.000 C 212.400 3.742,208.000 3.600,200.000 3.600 C 192.000 3.600,187.600 3.742,187.600 4.000 M214.535 14.200 C 216.260 14.530,219.084 14.800,220.812 14.800 C 222.539 14.800,224.064 14.980,224.200 15.200 C 224.336 15.420,226.019 15.600,227.939 15.600 C 231.129 15.600,234.974 16.441,235.868 17.335 C 236.014 17.481,236.893 17.600,237.821 17.600 C 238.749 17.600,240.024 17.869,240.654 18.198 C 241.284 18.526,242.464 18.796,243.276 18.798 C 244.088 18.799,244.864 18.980,245.000 19.200 C 245.136 19.420,245.756 19.600,246.378 19.600 C 247.000 19.600,248.024 19.869,248.654 20.198 C 249.284 20.526,250.284 20.796,250.876 20.798 C 251.468 20.799,252.064 20.980,252.200 21.200 C 252.336 21.420,252.866 21.600,253.378 21.600 C 253.890 21.600,254.824 21.869,255.454 22.198 C 256.084 22.526,257.005 22.796,257.500 22.798 C 257.995 22.799,258.400 22.980,258.400 23.200 C 258.400 23.420,258.985 23.606,259.700 23.613 C 260.415 23.620,261.349 23.890,261.776 24.213 C 262.204 24.536,262.969 24.800,263.476 24.800 C 263.984 24.800,264.400 24.980,264.400 25.200 C 264.400 25.420,264.816 25.600,265.324 25.600 C 265.831 25.600,266.596 25.864,267.024 26.187 C 267.451 26.510,268.205 26.780,268.700 26.787 C 269.195 26.794,269.600 26.980,269.600 27.200 C 269.600 27.420,270.118 27.600,270.751 27.600 C 271.384 27.600,272.126 27.870,272.400 28.200 C 272.674 28.530,273.236 28.800,273.649 28.800 C 274.062 28.800,274.400 28.980,274.400 29.200 C 274.400 29.420,274.718 29.600,275.108 29.600 C 275.497 29.600,277.248 30.320,279.000 31.200 C 280.752 32.080,282.398 32.800,282.659 32.800 C 282.920 32.800,283.193 32.935,283.267 33.100 C 283.460 33.535,285.965 34.800,286.632 34.800 C 286.945 34.800,287.200 34.959,287.200 35.153 C 287.200 35.348,287.515 35.619,287.900 35.756 C 288.285 35.894,289.500 36.533,290.600 37.177 C 291.700 37.821,293.230 38.665,294.000 39.051 C 294.770 39.437,295.957 40.169,296.638 40.677 C 297.319 41.185,298.040 41.600,298.242 41.600 C 298.443 41.600,299.093 42.050,299.687 42.600 C 300.280 43.150,301.049 43.600,301.395 43.600 C 301.742 43.600,302.129 43.870,302.255 44.200 C 302.382 44.530,302.736 44.800,303.043 44.800 C 303.349 44.800,303.600 44.980,303.600 45.200 C 303.600 45.420,303.827 45.600,304.104 45.600 C 304.381 45.600,305.093 46.050,305.687 46.600 C 306.280 47.150,306.866 47.600,306.989 47.600 C 307.266 47.600,312.852 51.618,313.400 52.212 C 313.620 52.451,314.520 53.169,315.400 53.808 C 316.280 54.448,317.201 55.158,317.447 55.386 C 318.195 56.080,319.735 57.352,321.000 58.322 C 322.773 59.680,330.543 66.989,333.569 70.144 C 339.111 75.922,340.644 77.575,341.979 79.211 C 342.738 80.141,343.593 81.135,343.879 81.422 C 344.166 81.708,344.400 82.121,344.400 82.338 C 344.400 82.555,344.536 82.793,344.703 82.867 C 344.870 82.940,345.632 83.810,346.397 84.800 C 347.163 85.790,348.287 87.140,348.895 87.800 C 349.504 88.460,350.116 89.353,350.255 89.785 C 350.394 90.216,350.934 90.905,351.454 91.314 C 351.974 91.723,352.400 92.272,352.400 92.533 C 352.400 92.794,352.850 93.493,353.400 94.087 C 353.950 94.680,354.400 95.353,354.400 95.583 C 354.400 95.812,354.535 96.003,354.700 96.006 C 354.865 96.009,355.630 97.087,356.400 98.400 C 357.170 99.713,357.935 100.791,358.100 100.794 C 358.265 100.797,358.400 101.082,358.400 101.427 C 358.400 101.771,358.850 102.643,359.400 103.364 C 359.950 104.086,360.400 104.797,360.400 104.945 C 360.400 105.093,361.300 106.665,362.400 108.439 C 363.500 110.212,364.400 111.904,364.400 112.198 C 364.400 112.493,364.535 112.793,364.700 112.867 C 365.123 113.055,366.400 115.557,366.400 116.199 C 366.400 116.493,366.535 116.793,366.700 116.867 C 367.135 117.060,368.400 119.565,368.400 120.232 C 368.400 120.545,368.535 120.801,368.700 120.801 C 368.865 120.802,369.329 121.657,369.731 122.701 C 370.133 123.746,370.718 125.078,371.031 125.662 C 371.344 126.246,371.600 127.011,371.600 127.362 C 371.600 127.713,371.780 128.000,372.000 128.000 C 372.220 128.000,372.400 128.345,372.400 128.768 C 372.400 129.190,372.700 130.135,373.068 130.868 C 374.304 133.336,374.400 133.587,374.400 134.371 C 374.400 134.801,374.563 135.254,374.763 135.377 C 374.963 135.501,375.434 136.636,375.809 137.901 C 376.185 139.165,376.742 140.767,377.046 141.460 C 377.351 142.154,377.600 143.088,377.600 143.537 C 377.600 143.986,377.780 144.464,378.000 144.600 C 378.220 144.736,378.400 145.467,378.400 146.224 C 378.400 146.981,378.572 147.600,378.782 147.600 C 378.992 147.600,379.272 148.275,379.404 149.100 C 379.536 149.925,379.814 150.913,380.022 151.295 C 380.230 151.677,380.400 152.622,380.400 153.395 C 380.400 154.168,380.569 154.800,380.775 154.800 C 380.982 154.800,381.261 155.655,381.396 156.700 C 381.531 157.745,381.812 158.913,382.020 159.295 C 382.229 159.677,382.400 160.766,382.400 161.715 C 382.400 162.664,382.581 163.621,382.803 163.843 C 383.220 164.260,383.903 168.913,384.264 173.800 C 384.378 175.340,384.655 176.823,384.880 177.095 C 386.491 179.044,386.481 220.968,384.869 222.919 C 384.650 223.183,384.378 224.660,384.264 226.200 C 383.903 231.087,383.220 235.740,382.803 236.157 C 382.581 236.379,382.400 237.336,382.400 238.285 C 382.400 239.234,382.229 240.323,382.020 240.705 C 381.812 241.087,381.531 242.255,381.396 243.300 C 381.261 244.345,381.000 245.200,380.816 245.200 C 380.631 245.200,380.391 245.965,380.280 246.900 C 379.974 249.505,379.178 252.400,378.768 252.400 C 378.565 252.400,378.400 253.109,378.400 253.976 C 378.400 254.843,378.220 255.664,378.000 255.800 C 377.780 255.936,377.599 256.352,377.598 256.724 C 377.596 257.096,377.326 257.916,376.998 258.546 C 376.669 259.176,376.400 260.033,376.400 260.451 C 376.400 261.213,376.302 261.468,375.068 263.932 C 374.700 264.665,374.400 265.523,374.400 265.838 C 374.400 266.416,374.279 266.714,373.068 269.132 C 372.700 269.865,372.400 270.660,372.400 270.898 C 372.400 271.620,371.069 274.400,370.723 274.400 C 370.545 274.400,370.400 274.743,370.400 275.163 C 370.400 275.831,369.578 277.741,367.801 281.200 C 364.266 288.081,363.088 290.221,362.774 290.333 C 362.568 290.407,362.400 290.725,362.400 291.041 C 362.400 291.357,361.990 292.287,361.489 293.108 C 360.987 293.929,360.226 295.275,359.798 296.100 C 359.369 296.925,358.879 297.600,358.709 297.600 C 358.539 297.600,358.400 297.808,358.400 298.062 C 358.400 298.316,357.990 299.081,357.489 299.762 C 356.989 300.443,356.224 301.687,355.789 302.527 C 355.355 303.367,354.724 304.357,354.387 304.727 C 354.050 305.097,353.387 306.030,352.914 306.800 C 352.440 307.570,351.708 308.568,351.287 309.018 C 350.866 309.468,350.449 310.028,350.361 310.263 C 350.272 310.497,349.660 311.374,349.000 312.212 C 345.032 317.251,342.963 319.856,342.606 320.262 C 338.167 325.317,329.498 334.400,329.112 334.400 C 329.015 334.400,327.490 335.808,325.722 337.529 C 323.954 339.250,321.628 341.365,320.554 342.229 C 319.479 343.093,318.540 343.935,318.467 344.100 C 318.393 344.265,318.121 344.400,317.862 344.400 C 317.602 344.400,317.052 344.850,316.639 345.400 C 316.226 345.950,315.688 346.402,315.444 346.403 C 315.200 346.405,314.370 346.996,313.600 347.715 C 311.956 349.251,307.389 352.400,306.805 352.400 C 306.582 352.400,306.400 352.546,306.400 352.724 C 306.400 353.112,301.707 356.400,301.153 356.400 C 300.940 356.400,300.280 356.850,299.687 357.400 C 299.093 357.950,298.486 358.400,298.336 358.400 C 298.186 358.400,296.612 359.300,294.839 360.400 C 293.065 361.500,291.341 362.400,291.007 362.400 C 290.673 362.400,290.400 362.554,290.400 362.741 C 290.400 363.163,277.818 369.600,276.994 369.600 C 276.667 369.600,276.400 369.780,276.400 370.000 C 276.400 370.220,275.950 370.400,275.400 370.400 C 274.850 370.400,274.400 370.545,274.400 370.723 C 274.400 371.069,271.620 372.400,270.898 372.400 C 270.660 372.400,269.865 372.700,269.132 373.068 C 266.655 374.309,266.412 374.400,265.577 374.400 C 265.118 374.400,264.473 374.670,264.143 375.000 C 263.813 375.330,263.206 375.600,262.795 375.600 C 262.384 375.600,261.936 375.780,261.800 376.000 C 261.664 376.220,261.059 376.400,260.456 376.400 C 259.853 376.400,259.189 376.554,258.980 376.742 C 258.522 377.155,254.684 378.400,253.871 378.400 C 253.552 378.400,252.776 378.669,252.146 378.998 C 251.516 379.326,250.516 379.596,249.924 379.598 C 249.332 379.599,248.736 379.780,248.600 380.000 C 248.464 380.220,247.754 380.400,247.022 380.400 C 246.290 380.400,245.176 380.669,244.546 380.998 C 243.916 381.326,242.736 381.596,241.924 381.598 C 241.112 381.599,240.336 381.780,240.200 382.000 C 240.064 382.220,239.099 382.400,238.056 382.400 C 237.013 382.400,235.989 382.569,235.780 382.776 C 235.354 383.198,230.156 383.959,225.600 384.267 C 223.950 384.378,222.392 384.642,222.137 384.853 C 219.984 386.637,179.988 386.614,177.832 384.827 C 177.594 384.630,176.050 384.378,174.400 384.267 C 169.844 383.959,164.646 383.198,164.220 382.776 C 164.011 382.569,162.987 382.400,161.944 382.400 C 160.901 382.400,159.952 382.246,159.835 382.057 C 159.719 381.869,158.699 381.605,157.569 381.471 C 156.440 381.337,155.309 381.062,155.058 380.859 C 154.806 380.656,153.880 380.398,153.000 380.286 C 150.734 379.996,147.868 379.221,147.420 378.777 C 147.211 378.570,146.668 378.400,146.214 378.400 C 145.760 378.400,144.401 378.020,143.194 377.555 C 141.987 377.090,140.460 376.617,139.800 376.505 C 139.140 376.392,138.420 376.167,138.200 376.005 C 137.980 375.843,137.305 375.592,136.700 375.448 C 136.095 375.303,135.600 375.008,135.600 374.792 C 135.600 374.577,135.148 374.400,134.595 374.400 C 133.590 374.400,133.368 374.321,130.868 373.068 C 130.135 372.700,129.294 372.400,129.000 372.400 C 128.357 372.400,125.855 371.124,125.667 370.700 C 125.593 370.535,125.276 370.400,124.961 370.400 C 124.647 370.400,124.077 370.246,123.695 370.058 C 113.226 364.909,109.600 363.028,109.600 362.745 C 109.600 362.555,109.324 362.400,108.986 362.400 C 108.407 362.400,106.436 361.319,106.000 360.763 C 105.890 360.623,105.427 360.392,104.971 360.249 C 104.514 360.107,103.789 359.678,103.360 359.295 C 102.930 358.913,101.908 358.257,101.089 357.837 C 100.270 357.417,99.600 356.922,99.600 356.737 C 99.600 356.552,99.322 356.400,98.983 356.400 C 98.406 356.400,98.002 356.144,96.615 354.900 C 96.308 354.625,95.907 354.400,95.724 354.400 C 95.542 354.400,94.907 353.950,94.313 353.400 C 93.720 352.850,93.073 352.400,92.876 352.400 C 92.678 352.400,92.046 351.964,91.471 351.431 C 90.896 350.898,90.105 350.359,89.713 350.232 C 89.321 350.106,88.460 349.504,87.800 348.895 C 87.140 348.287,85.790 347.163,84.800 346.397 C 83.810 345.632,82.940 344.870,82.867 344.703 C 82.793 344.536,82.493 344.400,82.200 344.400 C 81.907 344.400,81.607 344.265,81.533 344.100 C 81.460 343.935,80.770 343.294,80.000 342.675 C 76.558 339.909,66.877 330.588,62.000 325.345 C 58.021 321.068,57.389 320.339,55.793 318.200 C 55.137 317.320,54.410 316.420,54.177 316.200 C 53.945 315.980,53.230 315.080,52.590 314.200 C 51.949 313.320,51.015 312.152,50.513 311.604 C 50.011 311.056,49.600 310.381,49.600 310.104 C 49.600 309.827,49.420 309.600,49.200 309.600 C 48.980 309.600,48.800 309.349,48.800 309.043 C 48.800 308.736,48.558 308.393,48.263 308.280 C 47.968 308.166,47.419 307.427,47.044 306.637 C 46.669 305.847,46.191 305.200,45.981 305.200 C 45.772 305.200,45.600 304.930,45.600 304.600 C 45.600 304.270,45.441 304.000,45.247 304.000 C 45.052 304.000,44.788 303.685,44.658 303.300 C 44.403 302.538,43.891 301.691,42.501 299.727 C 42.005 299.026,41.600 298.261,41.600 298.027 C 41.600 297.792,41.463 297.600,41.295 297.600 C 40.976 297.600,40.781 297.275,39.301 294.272 C 38.807 293.269,38.222 292.337,38.001 292.201 C 37.780 292.064,37.600 291.686,37.600 291.360 C 37.600 291.033,37.233 290.373,36.785 289.891 C 36.336 289.410,35.866 288.607,35.741 288.108 C 35.616 287.609,35.353 287.200,35.157 287.200 C 34.960 287.200,34.800 286.862,34.800 286.449 C 34.800 286.036,34.530 285.474,34.200 285.200 C 33.870 284.926,33.600 284.364,33.600 283.951 C 33.600 283.538,33.420 283.200,33.200 283.200 C 32.980 283.200,32.800 282.862,32.800 282.449 C 32.800 282.036,32.530 281.474,32.200 281.200 C 31.870 280.926,31.600 280.364,31.600 279.951 C 31.600 279.538,31.420 279.200,31.200 279.200 C 30.980 279.200,30.800 278.874,30.800 278.476 C 30.800 278.079,30.536 277.404,30.213 276.976 C 29.890 276.549,29.620 275.795,29.613 275.300 C 29.606 274.805,29.420 274.400,29.200 274.400 C 28.980 274.400,28.800 273.950,28.800 273.400 C 28.800 272.850,28.632 272.400,28.427 272.400 C 28.222 272.400,27.940 271.995,27.802 271.500 C 27.496 270.409,26.918 268.986,26.163 267.468 C 25.853 266.845,25.600 266.000,25.600 265.591 C 25.600 265.182,25.420 264.736,25.200 264.600 C 24.980 264.464,24.794 263.958,24.787 263.476 C 24.780 262.994,24.510 262.251,24.187 261.824 C 23.864 261.396,23.600 260.642,23.600 260.147 C 23.600 259.652,23.420 259.136,23.200 259.000 C 22.980 258.864,22.794 258.268,22.787 257.676 C 22.780 257.084,22.510 256.251,22.187 255.824 C 21.864 255.396,21.600 254.451,21.600 253.724 C 21.600 252.996,21.420 252.400,21.200 252.400 C 20.980 252.400,20.800 251.804,20.800 251.076 C 20.800 250.349,20.536 249.404,20.213 248.976 C 19.890 248.549,19.620 247.525,19.613 246.700 C 19.606 245.875,19.420 245.200,19.200 245.200 C 18.980 245.200,18.794 244.435,18.786 243.500 C 18.778 242.565,18.514 241.350,18.200 240.800 C 17.886 240.250,17.622 239.035,17.614 238.100 C 17.606 237.165,17.420 236.400,17.200 236.400 C 16.980 236.400,16.800 235.432,16.800 234.249 C 16.800 233.066,16.530 231.451,16.200 230.662 C 15.870 229.872,15.600 228.061,15.600 226.636 C 15.600 225.212,15.448 223.953,15.262 223.838 C 15.076 223.723,14.812 221.508,14.675 218.915 C 14.538 216.322,14.240 213.571,14.013 212.803 C 13.467 210.954,13.464 188.656,14.011 186.797 C 14.237 186.029,14.535 183.368,14.673 180.885 C 14.811 178.402,15.076 176.277,15.262 176.162 C 15.448 176.047,15.600 174.724,15.600 173.222 C 15.600 171.578,15.838 170.036,16.198 169.346 C 16.526 168.716,16.796 167.266,16.798 166.124 C 16.799 164.982,16.980 163.936,17.200 163.800 C 17.420 163.664,17.606 162.798,17.614 161.876 C 17.622 160.954,17.886 159.750,18.200 159.200 C 18.514 158.650,18.778 157.435,18.786 156.500 C 18.794 155.565,18.980 154.800,19.200 154.800 C 19.420 154.800,19.606 154.125,19.613 153.300 C 19.620 152.475,19.890 151.451,20.213 151.024 C 20.536 150.596,20.800 149.651,20.800 148.924 C 20.800 148.196,20.980 147.600,21.200 147.600 C 21.420 147.600,21.600 147.004,21.600 146.276 C 21.600 145.549,21.864 144.604,22.187 144.176 C 22.510 143.749,22.780 142.916,22.787 142.324 C 22.794 141.732,22.980 141.136,23.200 141.000 C 23.420 140.864,23.600 140.348,23.600 139.853 C 23.600 139.358,23.864 138.604,24.187 138.176 C 24.510 137.749,24.780 137.083,24.787 136.695 C 24.800 135.985,24.907 135.713,26.132 133.268 C 26.500 132.535,26.800 131.600,26.800 131.191 C 26.800 130.782,26.980 130.336,27.200 130.200 C 27.420 130.064,27.600 129.535,27.600 129.025 C 27.600 128.515,27.870 127.874,28.200 127.600 C 28.530 127.326,28.800 126.764,28.800 126.351 C 28.800 125.938,28.980 125.600,29.200 125.600 C 29.420 125.600,29.600 125.184,29.600 124.676 C 29.600 124.169,29.864 123.404,30.187 122.976 C 30.510 122.549,30.780 121.885,30.787 121.500 C 30.794 121.115,30.980 120.800,31.200 120.800 C 31.420 120.800,31.600 120.462,31.600 120.049 C 31.600 119.636,31.870 119.074,32.200 118.800 C 32.530 118.526,32.800 117.964,32.800 117.551 C 32.800 117.138,32.980 116.800,33.200 116.800 C 33.420 116.800,33.600 116.462,33.600 116.049 C 33.600 115.636,33.870 115.074,34.200 114.800 C 34.530 114.526,34.800 113.979,34.800 113.584 C 34.800 113.190,34.935 112.807,35.100 112.733 C 35.398 112.601,35.957 111.635,37.957 107.800 C 38.531 106.700,39.135 105.740,39.300 105.667 C 39.465 105.593,39.600 105.300,39.600 105.016 C 39.600 104.731,39.853 104.288,40.163 104.031 C 40.473 103.774,41.018 102.986,41.374 102.282 C 42.179 100.689,42.747 99.754,43.899 98.127 C 44.395 97.426,44.800 96.661,44.800 96.427 C 44.800 96.192,44.980 96.000,45.200 96.000 C 45.420 96.000,45.600 95.730,45.600 95.400 C 45.600 95.070,45.751 94.800,45.935 94.800 C 46.119 94.800,47.154 93.496,48.235 91.902 C 49.316 90.308,50.380 88.798,50.600 88.547 C 51.181 87.882,52.017 86.835,53.590 84.799 C 54.354 83.809,55.079 82.910,55.200 82.800 C 55.321 82.690,56.043 81.790,56.805 80.800 C 58.519 78.570,58.133 79.004,63.400 73.383 C 65.820 70.801,68.494 68.038,69.343 67.244 C 70.192 66.450,72.041 64.675,73.453 63.300 C 74.865 61.925,76.098 60.800,76.194 60.800 C 76.289 60.800,77.076 60.125,77.942 59.300 C 78.807 58.475,80.061 57.385,80.728 56.879 C 81.395 56.372,82.539 55.430,83.270 54.785 C 84.002 54.140,84.759 53.610,84.954 53.606 C 85.149 53.603,85.691 53.195,86.160 52.700 C 87.134 51.670,89.826 49.600,90.191 49.600 C 90.325 49.600,90.920 49.150,91.513 48.600 C 92.107 48.050,92.727 47.600,92.893 47.600 C 93.058 47.600,93.656 47.195,94.220 46.700 C 95.208 45.834,97.552 44.310,98.800 43.723 C 99.130 43.568,99.848 43.027,100.396 42.521 C 100.944 42.014,101.557 41.600,101.758 41.600 C 101.960 41.600,102.681 41.185,103.362 40.677 C 104.043 40.169,105.267 39.444,106.083 39.066 C 106.899 38.688,107.674 38.203,107.807 37.989 C 107.939 37.775,108.397 37.600,108.824 37.600 C 109.251 37.600,109.600 37.463,109.600 37.295 C 109.600 37.127,109.951 36.812,110.381 36.595 C 110.810 36.378,113.645 34.965,116.681 33.456 C 119.716 31.947,122.678 30.462,123.262 30.156 C 123.846 29.850,124.611 29.600,124.962 29.600 C 125.313 29.600,125.600 29.420,125.600 29.200 C 125.600 28.980,125.938 28.800,126.351 28.800 C 126.764 28.800,127.326 28.530,127.600 28.200 C 127.874 27.870,128.528 27.600,129.054 27.600 C 130.008 27.600,130.272 27.502,132.662 26.257 C 133.356 25.896,134.213 25.600,134.567 25.600 C 135.215 25.600,135.494 25.490,137.932 24.268 C 138.665 23.900,139.790 23.600,140.432 23.600 C 141.075 23.600,141.600 23.420,141.600 23.200 C 141.600 22.980,142.005 22.799,142.500 22.798 C 142.995 22.796,143.916 22.526,144.546 22.198 C 145.176 21.869,146.110 21.600,146.622 21.600 C 147.134 21.600,147.664 21.420,147.800 21.200 C 147.936 20.980,148.632 20.800,149.347 20.800 C 150.062 20.800,150.996 20.536,151.424 20.213 C 151.851 19.890,152.774 19.620,153.476 19.613 C 154.178 19.606,154.864 19.420,155.000 19.200 C 155.136 18.980,155.872 18.800,156.636 18.800 C 157.401 18.800,158.672 18.530,159.462 18.200 C 160.251 17.870,161.566 17.600,162.382 17.600 C 163.199 17.600,163.986 17.481,164.132 17.335 C 165.026 16.441,168.871 15.600,172.061 15.600 C 173.981 15.600,175.664 15.420,175.800 15.200 C 175.936 14.980,177.522 14.792,179.324 14.781 C 181.126 14.771,183.770 14.523,185.200 14.229 C 189.112 13.426,210.381 13.405,214.535 14.200 M68.800 127.929 C 67.810 128.298,66.552 129.005,66.004 129.500 C 65.456 129.995,64.871 130.400,64.704 130.400 C 64.537 130.400,64.400 130.639,64.400 130.930 C 64.400 131.222,63.950 131.883,63.400 132.400 C 62.850 132.917,62.400 133.578,62.400 133.870 C 62.400 134.161,62.240 134.400,62.045 134.400 C 61.850 134.400,61.564 135.255,61.408 136.300 C 61.252 137.345,60.981 138.380,60.805 138.600 C 60.115 139.464,59.918 143.765,59.664 163.480 C 59.463 179.040,59.280 184.081,58.900 184.460 C 58.625 184.735,58.400 185.565,58.400 186.305 C 58.400 191.347,53.357 198.631,49.346 199.384 C 47.761 199.681,47.500 200.372,47.678 203.803 C 47.796 206.097,47.842 206.185,49.100 206.545 C 49.815 206.749,50.400 207.070,50.400 207.258 C 50.400 207.446,50.680 207.600,51.022 207.600 C 51.911 207.600,56.400 212.293,56.400 213.223 C 56.400 213.650,56.552 214.000,56.737 214.000 C 57.171 214.000,58.012 216.790,58.425 219.600 C 58.603 220.810,58.933 222.610,59.157 223.600 C 59.400 224.671,59.572 232.603,59.583 243.176 C 59.600 260.728,59.771 263.616,61.034 267.600 C 61.347 268.590,61.603 269.895,61.602 270.500 C 61.601 271.105,61.780 271.600,62.000 271.600 C 62.220 271.600,62.400 271.779,62.400 271.997 C 62.400 272.486,63.734 274.142,65.624 276.000 C 67.599 277.941,69.507 278.400,75.594 278.400 L 80.800 278.400 80.800 275.243 C 80.800 271.708,80.715 271.602,77.867 271.597 C 75.538 271.594,70.800 267.938,70.800 266.144 C 70.800 265.859,70.425 264.906,69.967 264.027 C 69.509 263.148,69.262 262.223,69.419 261.970 C 69.575 261.717,69.465 261.364,69.175 261.185 C 68.751 260.922,68.669 257.729,68.753 244.730 C 68.825 233.575,68.720 228.238,68.411 227.426 C 68.165 226.780,67.855 224.839,67.721 223.112 C 67.588 221.385,67.326 219.878,67.140 219.763 C 66.953 219.647,66.800 219.134,66.800 218.622 C 66.800 218.110,66.531 217.176,66.202 216.546 C 65.874 215.916,65.604 214.905,65.602 214.300 C 65.601 213.695,65.456 213.200,65.279 213.200 C 65.103 213.200,64.338 212.122,63.579 210.804 C 62.821 209.487,62.065 208.407,61.900 208.404 C 61.735 208.402,61.600 208.207,61.600 207.972 C 61.600 207.736,60.700 206.725,59.600 205.724 C 57.153 203.497,56.821 201.626,58.700 200.648 C 60.290 199.822,61.446 198.725,61.753 197.753 C 61.900 197.287,62.376 196.584,62.810 196.191 C 63.245 195.798,63.600 195.247,63.600 194.967 C 63.600 194.686,63.830 194.219,64.111 193.929 C 64.392 193.638,64.969 192.365,65.394 191.100 C 65.818 189.835,66.289 188.800,66.439 188.800 C 66.740 188.800,67.043 187.244,67.569 182.998 C 67.760 181.456,68.132 179.395,68.396 178.416 C 68.739 177.142,68.842 172.263,68.760 161.219 C 68.643 145.434,68.692 144.778,70.234 141.340 C 70.546 140.646,70.800 139.853,70.800 139.577 C 70.800 139.041,72.750 136.291,73.291 136.064 C 73.469 135.990,73.839 135.720,74.114 135.464 C 75.319 134.346,77.259 133.600,78.962 133.600 L 80.800 133.600 80.800 130.643 C 80.800 128.315,80.665 127.634,80.167 127.443 C 78.766 126.905,70.613 127.254,68.800 127.929 M138.830 127.528 C 138.230 127.710,137.722 128.277,137.500 129.011 C 137.303 129.665,136.989 130.560,136.802 131.000 C 136.615 131.440,136.144 132.565,135.754 133.500 C 135.365 134.435,134.901 135.200,134.723 135.200 C 134.545 135.200,134.400 135.549,134.400 135.976 C 134.400 136.403,134.244 136.849,134.054 136.967 C 133.864 137.084,133.612 137.770,133.495 138.490 C 133.378 139.211,132.813 140.823,132.241 142.074 C 131.668 143.325,131.200 144.540,131.200 144.774 C 131.200 145.008,131.020 145.200,130.800 145.200 C 130.580 145.200,130.400 145.650,130.400 146.200 C 130.400 146.750,130.220 147.200,130.000 147.200 C 129.780 147.200,129.600 147.526,129.600 147.924 C 129.600 148.321,129.336 148.996,129.013 149.424 C 128.690 149.851,128.420 150.510,128.413 150.889 C 128.401 151.538,127.566 153.548,125.379 158.200 C 124.861 159.300,124.318 160.740,124.171 161.400 C 124.024 162.060,123.139 164.220,122.204 166.200 C 121.269 168.180,120.194 170.835,119.815 172.100 C 119.436 173.365,118.962 174.400,118.763 174.400 C 118.563 174.400,118.400 174.839,118.400 175.376 C 118.400 175.913,118.234 176.455,118.031 176.581 C 117.828 176.706,117.543 177.347,117.399 178.005 C 117.255 178.662,116.971 179.200,116.768 179.200 C 116.566 179.200,116.400 179.464,116.400 179.786 C 116.400 180.326,115.601 182.414,114.751 184.095 C 114.558 184.477,114.400 184.994,114.400 185.245 C 114.400 185.661,112.401 190.153,110.979 192.932 C 110.661 193.555,110.400 194.394,110.400 194.796 C 110.400 195.197,109.970 196.398,109.445 197.463 C 108.920 198.528,108.191 200.120,107.826 201.000 C 107.460 201.880,106.990 202.913,106.781 203.295 C 106.571 203.677,106.400 204.341,106.400 204.771 C 106.400 205.201,106.234 205.655,106.031 205.781 C 105.828 205.906,105.543 206.547,105.399 207.205 C 105.255 207.862,104.971 208.400,104.768 208.400 C 104.566 208.400,104.400 208.764,104.400 209.210 C 104.400 209.655,103.792 211.230,103.050 212.710 C 102.307 214.189,101.574 215.983,101.419 216.695 C 101.265 217.408,100.972 218.094,100.769 218.219 C 100.566 218.345,100.400 218.769,100.400 219.162 C 100.400 220.102,99.244 222.400,98.771 222.400 C 98.567 222.400,98.400 222.850,98.400 223.400 C 98.400 223.950,98.240 224.400,98.045 224.400 C 97.850 224.400,97.569 225.210,97.421 226.200 C 97.272 227.190,96.982 228.000,96.775 228.000 C 96.569 228.000,96.400 228.364,96.400 228.808 C 96.400 229.252,95.950 230.329,95.400 231.200 C 94.850 232.071,94.400 233.052,94.400 233.378 C 94.400 233.705,94.105 234.654,93.745 235.486 C 93.384 236.319,92.952 237.360,92.785 237.800 C 92.476 238.615,91.491 240.994,90.717 242.800 C 89.746 245.063,89.000 246.400,88.709 246.400 C 88.539 246.400,88.400 247.075,88.399 247.900 L 88.398 249.400 91.099 249.265 C 92.738 249.183,94.058 248.899,94.456 248.543 C 95.404 247.695,97.600 243.073,97.600 241.927 C 97.600 241.391,97.864 240.604,98.187 240.176 C 98.510 239.749,98.780 239.085,98.787 238.700 C 98.794 238.315,98.980 238.000,99.200 238.000 C 99.420 238.000,99.600 237.662,99.600 237.249 C 99.600 236.836,99.870 236.274,100.200 236.000 C 100.530 235.726,100.803 235.209,100.806 234.851 C 100.812 234.194,101.415 232.408,102.377 230.200 C 102.664 229.540,103.039 228.640,103.209 228.200 C 104.062 225.995,104.938 224.018,105.822 222.303 C 106.360 221.260,106.800 220.042,106.800 219.598 C 106.800 219.153,106.965 218.477,107.166 218.095 C 108.253 216.033,110.379 211.266,110.597 210.400 C 110.920 209.125,111.240 208.313,112.491 205.600 C 113.049 204.390,113.820 202.590,114.206 201.600 C 114.592 200.610,115.333 198.850,115.854 197.689 C 116.374 196.528,116.800 195.223,116.800 194.789 C 116.800 194.355,116.980 194.000,117.200 194.000 C 117.420 194.000,117.600 193.709,117.600 193.354 C 117.600 192.999,118.034 191.874,118.564 190.854 C 119.094 189.834,119.855 188.010,120.255 186.800 C 120.655 185.590,121.391 183.845,121.891 182.923 C 122.391 182.001,122.800 180.966,122.800 180.623 C 122.800 180.280,122.980 180.000,123.200 180.000 C 123.420 180.000,123.599 179.685,123.598 179.300 C 123.595 178.291,124.899 174.800,125.279 174.800 C 125.456 174.800,125.600 174.455,125.600 174.032 C 125.600 173.610,125.859 172.755,126.175 172.132 C 127.406 169.708,128.800 166.351,128.800 165.813 C 128.800 165.502,128.980 165.136,129.200 165.000 C 129.420 164.864,129.600 164.482,129.600 164.152 C 129.600 163.822,130.320 162.022,131.200 160.152 C 132.080 158.282,132.800 156.504,132.800 156.200 C 132.800 155.896,132.980 155.536,133.200 155.400 C 133.420 155.264,133.606 154.848,133.613 154.476 C 133.619 154.104,134.068 152.900,134.609 151.800 C 135.150 150.700,135.594 149.664,135.596 149.498 C 135.598 149.332,136.050 148.263,136.600 147.123 C 137.150 145.983,137.600 144.737,137.600 144.354 C 137.600 143.971,137.870 143.387,138.200 143.057 C 138.530 142.727,138.800 142.095,138.800 141.652 C 138.800 141.209,138.980 140.736,139.200 140.600 C 139.420 140.464,139.600 140.083,139.600 139.753 C 139.600 139.422,140.320 137.644,141.200 135.800 C 142.080 133.956,142.800 132.165,142.800 131.818 C 142.800 131.202,142.975 130.758,143.965 128.861 C 144.235 128.345,144.372 127.839,144.270 127.736 C 143.923 127.390,139.805 127.232,138.830 127.528 M320.900 127.465 C 320.552 127.605,320.400 128.758,320.400 131.254 L 320.400 134.842 322.877 134.753 C 324.486 134.694,325.409 134.827,325.511 135.132 C 325.596 135.389,325.877 135.606,326.133 135.613 C 327.377 135.649,330.400 139.386,330.400 140.889 C 330.400 141.446,330.637 142.099,330.926 142.339 C 332.140 143.346,332.467 147.668,332.550 163.800 C 332.642 181.706,333.191 186.708,335.612 191.719 C 336.045 192.616,336.400 193.508,336.400 193.702 C 336.400 193.895,336.850 194.643,337.400 195.364 C 337.950 196.086,338.400 196.825,338.400 197.008 C 338.400 197.191,339.570 198.494,341.000 199.903 C 342.805 201.681,343.600 202.767,343.600 203.452 C 343.600 204.454,341.887 206.400,341.005 206.400 C 340.741 206.400,340.187 207.030,339.772 207.800 C 339.357 208.570,338.879 209.200,338.709 209.200 C 338.539 209.200,338.400 209.470,338.400 209.800 C 338.400 210.130,338.240 210.400,338.043 210.400 C 337.847 210.400,337.574 210.850,337.436 211.400 C 337.298 211.950,337.008 212.400,336.792 212.400 C 336.577 212.400,336.400 212.591,336.400 212.825 C 336.400 213.058,335.975 214.183,335.456 215.325 C 334.936 216.466,334.306 218.390,334.054 219.600 C 333.803 220.810,333.384 222.790,333.123 224.000 C 332.811 225.448,332.610 232.046,332.535 243.307 C 332.464 254.011,332.267 260.701,332.010 261.181 C 331.785 261.602,331.594 262.364,331.587 262.874 C 331.580 263.383,331.310 264.149,330.987 264.576 C 330.664 265.004,330.400 265.685,330.400 266.091 C 330.400 268.755,326.675 271.633,322.500 272.193 L 320.400 272.475 320.400 275.668 L 320.400 278.860 325.900 278.726 C 334.128 278.525,338.343 275.799,339.455 269.959 C 339.598 269.211,339.930 268.150,340.194 267.600 C 340.458 267.050,340.713 265.700,340.759 264.600 C 340.806 263.500,341.015 262.429,341.222 262.220 C 341.730 261.709,341.703 259.463,341.183 258.943 C 340.353 258.113,341.278 225.900,342.295 220.200 C 342.677 218.060,343.483 215.379,344.038 214.400 C 344.225 214.070,344.666 213.230,345.019 212.533 C 346.003 210.587,348.446 208.306,350.731 207.200 C 353.068 206.068,353.298 205.588,353.122 202.194 L 353.000 199.822 351.459 199.392 C 348.586 198.589,343.600 192.987,343.600 190.563 C 343.600 190.210,343.343 189.354,343.029 188.660 C 342.265 186.974,341.988 184.799,341.745 178.600 C 341.633 175.740,341.375 173.229,341.171 173.020 C 340.654 172.490,340.682 147.720,341.200 147.400 C 341.700 147.091,341.719 145.165,341.234 143.889 C 341.032 143.359,340.783 142.114,340.680 141.122 C 340.576 140.131,340.291 138.944,340.046 138.486 C 339.801 138.028,339.600 137.274,339.600 136.810 C 339.600 134.814,334.840 128.400,333.359 128.400 C 333.102 128.400,332.376 128.131,331.746 127.802 C 330.630 127.220,322.159 126.957,320.900 127.465 " stroke="none" fill="#3665ef" fill-rule="evenodd"></path><path id="path4" d="M178.600 159.437 C 177.500 159.757,175.610 160.308,174.400 160.662 C 168.121 162.501,159.641 168.502,156.119 173.600 C 155.739 174.150,155.123 174.931,154.751 175.336 C 154.118 176.023,150.617 182.865,149.658 185.289 C 149.200 186.447,147.968 191.471,147.195 195.336 C 145.730 202.666,146.851 214.980,149.897 225.000 C 150.381 226.591,154.022 233.282,155.190 234.724 C 155.847 235.536,156.973 236.927,157.692 237.815 C 161.902 243.015,167.604 246.641,175.400 249.076 C 181.180 250.881,193.963 250.788,199.870 248.898 C 209.500 245.816,217.509 237.481,220.909 227.000 C 222.617 221.735,222.930 220.470,222.966 218.694 L 223.000 217.000 217.652 217.000 L 212.303 217.000 211.530 220.200 C 211.104 221.960,210.608 223.760,210.428 224.200 C 205.938 235.140,197.969 240.948,187.400 240.984 C 182.432 241.001,181.007 240.729,176.600 238.927 C 152.090 228.901,151.080 182.851,175.114 171.204 C 179.916 168.877,181.206 168.508,185.818 168.147 C 197.446 167.236,207.046 174.021,210.831 185.826 C 211.948 189.309,211.718 189.188,217.200 189.188 C 222.985 189.188,223.014 189.171,222.409 186.152 C 219.568 171.972,212.522 164.104,199.400 160.459 C 198.520 160.215,196.822 159.742,195.627 159.407 C 192.698 158.588,181.452 158.608,178.600 159.437 M264.400 159.975 C 246.857 162.491,237.721 171.699,238.540 186.041 C 239.047 194.911,244.471 201.402,254.000 204.543 C 255.210 204.942,256.560 205.408,257.000 205.579 C 258.594 206.200,261.844 207.149,263.800 207.566 C 284.922 212.063,291.089 214.832,293.839 221.051 C 296.672 227.456,293.197 235.003,285.769 238.576 C 284.142 239.359,282.574 240.000,282.285 240.000 C 281.996 240.000,281.589 240.151,281.380 240.335 C 278.537 242.845,263.993 241.763,257.391 238.550 C 252.152 236.000,247.822 230.357,246.763 224.698 C 245.837 219.744,246.480 220.216,240.478 220.088 C 235.297 219.979,235.218 219.990,234.997 220.888 C 234.742 221.928,235.980 228.109,236.983 230.800 C 237.351 231.790,237.762 232.960,237.895 233.400 C 239.717 239.416,247.064 245.809,255.393 248.625 C 262.965 251.186,276.579 251.653,283.400 249.586 C 284.060 249.386,285.590 248.932,286.800 248.577 C 305.700 243.030,312.076 221.823,298.760 208.800 C 296.980 207.059,296.383 206.666,291.567 204.061 C 289.466 202.924,284.997 201.517,280.000 200.419 C 278.790 200.153,276.990 199.700,276.000 199.413 C 275.010 199.126,273.120 198.666,271.800 198.391 C 269.225 197.855,264.614 196.695,262.505 196.053 C 257.263 194.457,251.989 190.682,250.391 187.381 C 247.381 181.164,251.174 173.187,258.371 170.596 C 259.377 170.234,260.560 169.784,261.000 169.595 C 264.425 168.128,274.541 168.114,278.200 169.571 C 285.994 172.675,290.090 176.999,291.220 183.317 C 292.100 188.239,291.497 187.784,297.312 187.912 L 302.406 188.024 302.871 187.004 C 303.573 185.463,302.031 178.616,300.121 174.800 C 297.078 168.717,290.260 163.204,283.600 161.441 C 282.170 161.063,280.460 160.577,279.800 160.362 C 278.223 159.849,267.211 159.572,264.400 159.975 " stroke="none" fill="#000000" fill-rule="evenodd"></path></g></svg>